<?xml version="1.0" encoding="utf-8"?>
<!-- Generator: Adobe Illustrator 21.0.0, SVG Export Plug-In . SVG Version: 6.00 Build 0)  -->
<svg version="1.1" id="Logo" xmlns="http://www.w3.org/2000/svg" xmlns:xlink="http://www.w3.org/1999/xlink" x="0px" y="0px"
	 viewBox="0 0 429.5 85" style="enable-background:new 0 0 429.5 85;" xml:space="preserve">
<style type="text/css">
	.st0{fill:#DDDDDD;}
	.st1{fill:#FFFFFF;}
	.st2{enable-background:new    ;}
</style>
<g id="foot">
	<path id="heel" class="st0" d="M36.9,34.4C26.5,45.9,29.7,54,31.6,58c2.3,5.1,11,9.9,10.9,16.7c-0.1,2.6-2.6,5.2-6.4,6.4
		c-3.6,1.1-6.6,1.4-10.5-2.6C12.4,65,7.6,49.4,7.6,49.4L36.9,34.4z"/>
	<g id="toes">
		<path class="st1" d="M27.2,16.2c-2.3-3.2-1.6-9,1.2-11.5c1.9-1.7,4.3-1.4,5.7,0.7c2,2.9,2,7.3-0.1,10.4
			C32.1,18.7,29.2,18.9,27.2,16.2z"/>
		<path class="st1" d="M20.6,10.3c1.8,1.6,2.4,5.3,1.2,7.5c-1.2,2.1-3.4,2.4-5,0.5c-1.6-2-1.9-4.2-1.4-6
			C16.7,9.3,18.7,8.8,20.6,10.3z"/>
		<path class="st1" d="M12,16.3c1.9,1,3.1,3.9,2.4,5.9c-0.5,1.6-1.9,2.2-3.3,1.4c-1.9-1-3-3.9-2.4-6C9.2,16,10.5,15.6,12,16.3z"/>
		<path class="st1" d="M4.3,25.5c0.1-1.4,1.2-2.2,2.5-1.7c1.6,0.5,2.9,2.4,2.8,4.2c-0.1,1.4-1.2,2.1-2.5,1.7
			C5.4,29.1,4.1,27.1,4.3,25.5z"/>
		<path class="st1" d="M3.8,36.3C2.7,35.7,2,34,2.3,32.6c0.3-1.1,1.2-1.5,2.2-1c1.2,0.6,1.9,2.4,1.5,3.8C5.7,36.5,4.8,36.9,3.8,36.3
			z"/>
		<path class="st1" d="M31.3,20.4c7.2,1.1,8.4,6.7,7.3,10.5c-1.4,4.9-6.6,8.4-10.4,12.8c-4.6,5.3-8,12.8-7.7,20.3
			c0.2,5,5,14.5,5,14.5s-9-8-16-23.9C-1.1,30.6,25.6,19.6,31.3,20.4z"/>
	</g>
</g>
<g id="footwork">
	<g class="st2">
		<path class="st1" d="M90.6,8.3c0.9,0,1.6,0,2.1,0.1c0.5,0.1,1,0.3,1.6,0.6c0.6,0.3,1,0.9,1.3,1.6c0.2,0.8,0.4,1.8,0.4,3.1
			c0,1.3-0.1,2.3-0.4,3.1c-0.2,0.8-0.7,1.3-1.3,1.6s-1.1,0.5-1.6,0.5c-0.5,0.1-1.2,0.1-2.2,0.1H71.8v6.2h12c1,0,1.7,0,2.2,0.1
			c0.5,0.1,1,0.3,1.6,0.6c1.1,0.6,1.6,2.2,1.6,4.8c0,2.8-0.8,4.5-2.3,5.1c-0.7,0.2-1.7,0.3-3.1,0.3h-12v11.5c0,1,0,1.7-0.1,2.1
			c-0.1,0.4-0.3,1-0.6,1.6C70.6,52.5,69,53,66.4,53c-2.8,0-4.5-0.8-5-2.3C61.2,50,61,49,61,47.6V13.7c0-2.1,0.4-3.5,1.2-4.2
			c0.8-0.8,2.2-1.1,4.4-1.1H90.6z"/>
		<path class="st1" d="M120.9,7.7c6,0,11.2,2.2,15.7,6.5c4.4,4.4,6.6,9.8,6.6,16.2s-2.1,11.9-6.3,16.5c-4.2,4.5-9.4,6.8-15.6,6.8
			c-6.2,0-11.4-2.2-15.8-6.7S99,37.2,99,31c0-3.4,0.6-6.5,1.8-9.5c1.2-2.9,2.8-5.4,4.9-7.4c2-2,4.4-3.6,7-4.7
			C115.3,8.3,118.1,7.7,120.9,7.7z M109.8,30.7c0,3.6,1.2,6.6,3.5,8.8c2.3,2.3,5,3.4,7.8,3.4c2.9,0,5.5-1.1,7.8-3.3
			c2.3-2.2,3.5-5.1,3.5-8.8c0-3.7-1.2-6.7-3.5-8.9c-2.3-2.2-5-3.4-7.8-3.4c-2.9,0-5.5,1.1-7.8,3.4C110.9,24.2,109.8,27.1,109.8,30.7
			z"/>
		<path class="st1" d="M168.2,7.7c6,0,11.2,2.2,15.7,6.5c4.4,4.4,6.6,9.8,6.6,16.2s-2.1,11.9-6.3,16.5c-4.2,4.5-9.4,6.8-15.6,6.8
			c-6.2,0-11.4-2.2-15.8-6.7s-6.5-9.8-6.5-16c0-3.4,0.6-6.5,1.8-9.5c1.2-2.9,2.8-5.4,4.9-7.4c2-2,4.4-3.6,7-4.7
			C162.6,8.3,165.3,7.7,168.2,7.7z M157.1,30.7c0,3.6,1.2,6.6,3.5,8.8c2.3,2.3,5,3.4,7.8,3.4c2.9,0,5.5-1.1,7.8-3.3
			c2.3-2.2,3.5-5.1,3.5-8.8c0-3.7-1.2-6.7-3.5-8.9c-2.3-2.2-5-3.4-7.8-3.4c-2.9,0-5.5,1.1-7.8,3.4C158.2,24.2,157.1,27.1,157.1,30.7
			z"/>
		<path class="st1" d="M193.7,8.2h33.9c1.3,0,2.3,0.2,2.9,0.5c0.6,0.3,1,0.8,1.2,1.4c0.2,0.7,0.3,1.5,0.3,2.6c0,1.1-0.1,1.9-0.3,2.5
			c-0.2,0.6-0.5,1.1-1,1.3c-0.7,0.4-1.8,0.5-3.1,0.5h-11.7v30.7c0,0.9,0,1.6-0.1,2.1c-0.1,0.4-0.2,1-0.5,1.6c-0.3,0.6-0.8,1-1.6,1.3
			c-0.8,0.2-1.8,0.4-3,0.4c-1.3,0-2.3-0.1-3-0.4c-0.8-0.2-1.3-0.7-1.6-1.3c-0.3-0.6-0.5-1.1-0.5-1.6s-0.1-1.2-0.1-2.1V17.1h-11.7
			c-1.3,0-2.3-0.2-2.9-0.5c-0.6-0.3-1-0.8-1.2-1.4c-0.2-0.6-0.3-1.5-0.3-2.6s0.1-1.9,0.3-2.5c0.2-0.6,0.5-1.1,1-1.3
			C191.3,8.4,192.4,8.2,193.7,8.2z"/>
		<path class="st1" d="M288.9,8.5c2.7,1,4.1,2.3,4.1,3.9c0,0.5-0.2,1.5-0.7,3l-11.7,33.9c-0.1,0.3-0.2,0.6-0.4,1
			c-0.2,0.4-0.7,0.9-1.6,1.6c-0.9,0.7-1.9,1-3.1,1c-1.2,0-2.2-0.3-3.1-1c-0.9-0.7-1.5-1.3-1.7-2l-7.1-21
			c-4.5,13.3-6.8,20.1-6.9,20.4c-0.1,0.2-0.3,0.6-0.5,1c-0.3,0.4-0.6,0.9-1,1.2c-0.9,0.9-2.1,1.4-3.4,1.4c-1.3,0-2.4-0.3-3.2-0.9
			c-0.8-0.6-1.4-1.2-1.7-1.8l-0.4-0.9l-11.8-33.9c-0.4-1.3-0.7-2.3-0.7-3c0-1.6,1.4-2.9,4.1-3.8c1.2-0.4,2.2-0.6,3.2-0.6
			c1,0,1.7,0.3,2.2,1c0.5,0.7,1,1.6,1.4,3l6.7,20.4l6.6-20.1c0.6-1.7,1.6-2.9,3.1-3.5c0.7-0.3,1.5-0.4,2.5-0.4s2,0.3,2.9,1
			c0.9,0.7,1.5,1.3,1.7,2l7,21.2l6.7-20.5c0.3-0.9,0.6-1.6,0.8-2.1c0.2-0.4,0.6-0.9,1.1-1.3c0.5-0.4,1.2-0.6,2-0.6
			C286.8,7.9,287.8,8.1,288.9,8.5z"/>
		<path class="st1" d="M317.3,7.7c6,0,11.2,2.2,15.7,6.5c4.4,4.4,6.6,9.8,6.6,16.2s-2.1,11.9-6.3,16.5c-4.2,4.5-9.4,6.8-15.6,6.8
			s-11.4-2.2-15.8-6.7s-6.5-9.8-6.5-16c0-3.4,0.6-6.5,1.8-9.5c1.2-2.9,2.8-5.4,4.9-7.4c2-2,4.4-3.6,7-4.7S314.5,7.7,317.3,7.7z
			 M306.2,30.7c0,3.6,1.2,6.6,3.5,8.8c2.3,2.3,5,3.4,7.8,3.4s5.5-1.1,7.8-3.3c2.3-2.2,3.5-5.1,3.5-8.8c0-3.7-1.2-6.7-3.5-8.9
			c-2.3-2.2-5-3.4-7.8-3.4c-2.9,0-5.5,1.1-7.8,3.4C307.4,24.2,306.2,27.1,306.2,30.7z"/>
		<path class="st1" d="M377.8,45.4c0.6,1.5,0.9,2.5,0.9,3.2c0,1.5-1.3,2.8-3.8,3.9c-1.3,0.6-2.3,0.9-3.1,0.9s-1.4-0.2-2-0.6
			c-0.5-0.4-0.9-0.8-1.1-1.2c-0.4-0.8-2-4.5-4.8-11l-1.9,0.1h-7.7v6.9c0,0.9,0,1.6-0.1,2.1c-0.1,0.5-0.3,1-0.6,1.6
			c-0.6,1.1-2.2,1.6-4.8,1.6c-2.8,0-4.5-0.8-5-2.3c-0.2-0.7-0.4-1.7-0.4-3.2V13.7c0-0.9,0-1.6,0.1-2.1c0.1-0.5,0.3-1,0.6-1.6
			c0.6-1.1,2.2-1.6,4.8-1.6h13.2c3.6,0,7.1,1.3,10.4,3.9c1.6,1.3,3,3,4,5.1s1.6,4.6,1.6,7.2c0,4.6-1.5,8.4-4.6,11.3
			C374.6,38,375.9,41.2,377.8,45.4z M354.4,29.9h7.8c1.2,0,2.4-0.4,3.5-1.3c1.2-0.9,1.8-2.2,1.8-4c0-1.8-0.6-3.1-1.8-4.1
			c-1.2-0.9-2.4-1.4-3.7-1.4h-7.7V29.9z"/>
		<path class="st1" d="M401.2,30.6c6.2,6,10.6,10.5,13.2,13.5c1.3,1.5,2,2.8,2,3.8s-0.8,2.3-2.4,3.7c-1.6,1.4-3,2.1-4,2.1
			s-2.3-0.9-3.8-2.6l-13.4-15.3v11.9c0,1,0,1.7-0.1,2.1c-0.1,0.4-0.3,1-0.6,1.6c-0.6,1.1-2.2,1.6-4.8,1.6c-2.8,0-4.5-0.8-5-2.3
			c-0.2-0.6-0.4-1.7-0.4-3.1V13.7c0-0.9,0-1.6,0.1-2.1c0.1-0.5,0.3-1,0.6-1.6c0.6-1.1,2.2-1.6,4.8-1.6c2.8,0,4.5,0.8,5.1,2.3
			c0.2,0.7,0.3,1.7,0.3,3.2v11.7c5.5-6.2,10-11.3,13.4-15.3c1.4-1.7,2.7-2.5,3.7-2.5c1.1,0,2.4,0.7,4,2.1c1.6,1.4,2.4,2.6,2.4,3.7
			s-0.6,2.3-1.8,3.7c-2.4,2.7-6,6.5-11,11.2L401.2,30.6z"/>
	</g>
</g>
<g>
	<path class="st1" d="M67.7,64.3l4.1,8.4C72,73,72,73.3,72,73.4c0,0.4-0.3,0.7-0.9,1c-0.3,0.2-0.6,0.3-0.8,0.3c-0.2,0-0.4,0-0.5-0.1
		c-0.1-0.1-0.2-0.2-0.3-0.3c-0.1-0.1-0.1-0.3-0.2-0.5l-0.8-1.6h-4.2l-0.8,1.6c-0.1,0.2-0.2,0.3-0.2,0.4c-0.1,0.1-0.1,0.2-0.3,0.3
		c-0.1,0.1-0.3,0.1-0.5,0.1s-0.5-0.1-0.8-0.3c-0.6-0.3-0.9-0.6-0.9-1c0-0.2,0.1-0.4,0.3-0.8l4-8.4c0.1-0.2,0.3-0.4,0.5-0.6
		c0.2-0.1,0.5-0.2,0.7-0.2C67.1,63.5,67.5,63.8,67.7,64.3z M66.5,67.9l-1,2.1h2L66.5,67.9z"/>
	<path class="st1" d="M76.7,73.8c-0.2-0.1-0.3-0.3-0.3-0.6c0-0.3,0.2-0.7,0.6-1.2c0.1-0.2,0.3-0.3,0.5-0.3s0.6,0.1,1,0.4
		s0.8,0.4,1.1,0.4c0.6,0,0.9-0.1,0.9-0.4c0-0.2-0.3-0.3-1-0.4c-0.6-0.1-1.3-0.3-1.9-0.7c-0.3-0.2-0.5-0.5-0.7-0.8
		c-0.2-0.4-0.3-0.8-0.3-1.4c0-1.6,1.1-2.4,3.3-2.4c0.7,0,1.4,0.2,2.2,0.5c0.4,0.2,0.5,0.4,0.5,0.6c0,0.2-0.1,0.5-0.3,0.9
		c-0.2,0.3-0.4,0.5-0.7,0.5c-0.1,0-0.3-0.1-0.7-0.2c-0.3-0.2-0.7-0.2-1.1-0.2c-0.6,0-0.9,0.1-0.9,0.3c0,0.3,0.3,0.5,1,0.6
		c0.7,0.1,1.3,0.3,1.9,0.6c0.3,0.1,0.5,0.4,0.7,0.7S83,71.5,83,72c0,0.5-0.1,1-0.3,1.3s-0.5,0.6-0.8,0.8c-0.6,0.3-1.4,0.5-2.4,0.5
		S77.6,74.4,76.7,73.8z"/>
	<path class="st1" d="M85,67.6c0.8-0.8,1.8-1.2,2.9-1.2s2,0.4,2.9,1.2c0.8,0.8,1.2,1.8,1.2,3c0,0.8-0.2,1.6-0.6,2.2
		c-0.4,0.6-1,1.1-1.6,1.4c-0.6,0.3-1.3,0.5-1.9,0.5s-1.3-0.2-1.9-0.5c-0.6-0.3-1.1-0.8-1.6-1.4c-0.4-0.6-0.6-1.4-0.6-2.2
		C83.8,69.4,84.2,68.4,85,67.6z M86.9,71.6c0.3,0.2,0.6,0.4,1,0.4s0.7-0.1,1-0.4s0.5-0.6,0.5-1.1c0-0.5-0.2-0.9-0.5-1.1
		s-0.6-0.4-1-0.4s-0.7,0.1-1,0.4c-0.3,0.3-0.5,0.6-0.5,1.1C86.4,71,86.6,71.4,86.9,71.6z"/>
	<path class="st1" d="M93,64.2c0-0.2,0-0.4,0-0.5s0.1-0.2,0.1-0.4c0.1-0.3,0.5-0.4,1.2-0.4c0.6,0,1,0.1,1.1,0.4
		c0.1,0.1,0.1,0.3,0.1,0.4c0,0.1,0,0.3,0,0.5v6.9c0,0.4,0,0.6,0.1,0.7c0.1,0.1,0.2,0.1,0.4,0.1s0.3,0,0.4,0c0.1,0,0.2,0.1,0.3,0.1
		c0.2,0.1,0.3,0.5,0.3,1.1c0,0.6-0.1,1-0.3,1.2c-0.3,0.2-0.9,0.2-1.9,0.1c-0.8-0.1-1.3-0.4-1.5-0.8c-0.3-0.5-0.4-1.3-0.4-2.3V64.2z"
		/>
	<path class="st1" d="M100.4,65.1c-0.1,0.1-0.2,0.2-0.4,0.3c-0.2,0.1-0.4,0.1-0.8,0.1s-0.6,0-0.8-0.1c-0.2-0.1-0.3-0.2-0.4-0.3
		c-0.1-0.2-0.1-0.3-0.1-0.4s0-0.3,0-0.5c0-0.2,0-0.4,0-0.5c0-0.1,0.1-0.2,0.1-0.4c0.1-0.3,0.5-0.4,1.2-0.4c0.6,0,1,0.1,1.1,0.4
		c0.1,0.2,0.1,0.3,0.1,0.4c0,0.1,0,0.3,0,0.5c0,0.2,0,0.4,0,0.5C100.5,64.9,100.4,65,100.4,65.1z M97.9,67.9c0-0.2,0-0.4,0-0.5
		s0.1-0.2,0.1-0.4c0.1-0.3,0.5-0.4,1.2-0.4c0.5,0,0.8,0.1,1,0.3c0.2,0.1,0.3,0.4,0.3,0.6c0,0.1,0,0.2,0,0.4v5.3c0,0.2,0,0.4,0,0.5
		c0,0.1-0.1,0.2-0.1,0.4c-0.1,0.3-0.5,0.4-1.2,0.4c-0.6,0-1-0.1-1.2-0.4c-0.1-0.1-0.1-0.3-0.1-0.4s0-0.3,0-0.5V67.9z"/>
	<path class="st1" d="M107,63.3c0.1-0.1,0.2-0.2,0.4-0.3c0.2-0.1,0.4-0.1,0.8-0.1s0.6,0,0.8,0.1c0.2,0.1,0.3,0.2,0.4,0.3
		c0.1,0.2,0.1,0.3,0.1,0.4c0,0.1,0,0.3,0,0.5v9c0,0.2,0,0.4,0,0.5c0,0.1-0.1,0.2-0.1,0.4c-0.1,0.3-0.6,0.4-1.3,0.4
		c-0.7,0-1.1-0.2-1.2-0.7c-0.4,0.5-1,0.7-1.8,0.7c-0.9,0-1.7-0.4-2.5-1.2c-0.7-0.8-1.1-1.7-1.1-2.7s0.4-2,1.1-2.8s1.6-1.2,2.5-1.2
		c0.7,0,1.3,0.3,1.7,0.8v-3.2c0-0.2,0-0.4,0-0.5C106.9,63.6,107,63.4,107,63.3z M104.6,71.5c0.3,0.3,0.6,0.4,0.9,0.4
		c0.4,0,0.7-0.1,0.9-0.4c0.2-0.3,0.4-0.6,0.4-0.9s-0.1-0.6-0.4-0.9c-0.2-0.3-0.6-0.4-1-0.4s-0.7,0.1-1,0.4c-0.2,0.3-0.4,0.6-0.4,0.9
		S104.3,71.2,104.6,71.5z"/>
	<path class="st1" d="M119.1,66.6c0.7,0,1.1,0.2,1.2,0.6c0.1,0.2,0.1,0.4,0.1,0.8c0,0.3,0,0.6-0.1,0.7c-0.1,0.2-0.2,0.3-0.3,0.4
		c-0.2,0.1-0.5,0.2-0.9,0.2l-1-0.1v4c0,0.4,0,0.7-0.1,0.8c-0.1,0.2-0.2,0.3-0.4,0.4c-0.2,0.1-0.4,0.1-0.8,0.1c-0.3,0-0.6,0-0.7-0.1
		c-0.2-0.1-0.3-0.2-0.4-0.3c-0.1-0.1-0.1-0.3-0.1-0.4s0-0.3,0-0.5v-4H115c-0.3,0-0.4-0.1-0.6-0.2c-0.2-0.2-0.3-0.6-0.3-1.1
		c0-0.8,0.3-1.2,0.9-1.2h0.5v-0.8c0-0.8,0.3-1.5,0.8-2.1c0.5-0.6,1.3-0.9,2.4-0.9c0.2,0,0.4,0,0.5,0c0.1,0,0.2,0.1,0.4,0.1
		c0.3,0.1,0.4,0.5,0.4,1.2c0,0.5-0.1,0.8-0.3,1c-0.1,0.2-0.4,0.3-0.7,0.3c-0.1,0-0.2,0-0.4,0c-0.4,0-0.6,0.1-0.6,0.4v0.8L119.1,66.6
		z"/>
	<path class="st1" d="M122,67.6c0.8-0.8,1.8-1.2,2.9-1.2s2,0.4,2.9,1.2c0.8,0.8,1.2,1.8,1.2,3c0,0.8-0.2,1.6-0.6,2.2
		c-0.4,0.6-1,1.1-1.6,1.4c-0.6,0.3-1.3,0.5-1.9,0.5s-1.3-0.2-1.9-0.5c-0.6-0.3-1.1-0.8-1.6-1.4c-0.4-0.6-0.6-1.4-0.6-2.2
		C120.7,69.4,121.1,68.4,122,67.6z M123.9,71.6c0.3,0.2,0.6,0.4,1,0.4s0.7-0.1,1-0.4s0.5-0.6,0.5-1.1c0-0.5-0.2-0.9-0.5-1.1
		s-0.6-0.4-1-0.4s-0.7,0.1-1,0.4c-0.3,0.3-0.5,0.6-0.5,1.1C123.4,71,123.5,71.4,123.9,71.6z"/>
	<path class="st1" d="M131,67.6c0.8-0.8,1.8-1.2,2.9-1.2s2,0.4,2.9,1.2c0.8,0.8,1.2,1.8,1.2,3c0,0.8-0.2,1.6-0.6,2.2
		c-0.4,0.6-1,1.1-1.6,1.4c-0.6,0.3-1.3,0.5-1.9,0.5s-1.3-0.2-1.9-0.5c-0.6-0.3-1.1-0.8-1.6-1.4c-0.4-0.6-0.6-1.4-0.6-2.2
		C129.7,69.4,130.1,68.4,131,67.6z M132.9,71.6c0.3,0.2,0.6,0.4,1,0.4s0.7-0.1,1-0.4s0.5-0.6,0.5-1.1c0-0.5-0.2-0.9-0.5-1.1
		s-0.6-0.4-1-0.4s-0.7,0.1-1,0.4c-0.3,0.3-0.5,0.6-0.5,1.1C132.4,71,132.5,71.4,132.9,71.6z"/>
	<path class="st1" d="M143.3,69.3l-1-0.1v2.1c0,0.3,0,0.5,0.1,0.6s0.2,0.2,0.5,0.2s0.4,0,0.5,0c0.1,0,0.3,0.1,0.4,0.1
		c0.2,0.1,0.3,0.5,0.3,1c0,0.6-0.1,1-0.4,1.2c-0.1,0.1-0.3,0.1-0.4,0.1c-0.1,0-0.3,0-0.5,0c-1,0-1.8-0.2-2.4-0.7
		c-0.5-0.5-0.8-1.3-0.8-2.4v-2.2c-0.2,0-0.4,0-0.6,0c-0.2,0-0.4-0.1-0.5-0.3s-0.2-0.5-0.2-0.9s0-0.7,0.1-0.9
		c0.1-0.2,0.1-0.3,0.2-0.4c0.2-0.1,0.4-0.2,0.6-0.2l0.5,0.1v-1.5c0-0.2,0-0.4,0-0.5c0-0.1,0.1-0.2,0.1-0.4c0.1-0.2,0.5-0.4,1.2-0.4
		c0.7,0,1.1,0.2,1.2,0.6c0,0.2,0.1,0.4,0.1,0.8v1.5c0.4,0,0.8-0.1,1-0.1s0.4,0,0.5,0c0.1,0,0.2,0.1,0.4,0.1c0.3,0.1,0.4,0.5,0.4,1.2
		c0,0.6-0.1,1-0.4,1.2c-0.1,0.1-0.3,0.1-0.4,0.1C143.7,69.2,143.5,69.3,143.3,69.3z"/>
	<path class="st1" d="M147.9,65.1c-0.1,0.1-0.2,0.2-0.4,0.3c-0.2,0.1-0.4,0.1-0.8,0.1s-0.6,0-0.8-0.1c-0.2-0.1-0.3-0.2-0.4-0.3
		c-0.1-0.2-0.1-0.3-0.1-0.4s0-0.3,0-0.5c0-0.2,0-0.4,0-0.5c0-0.1,0.1-0.2,0.1-0.4c0.1-0.3,0.5-0.4,1.2-0.4c0.6,0,1,0.1,1.1,0.4
		c0.1,0.2,0.1,0.3,0.1,0.4c0,0.1,0,0.3,0,0.5c0,0.2,0,0.4,0,0.5C148,64.9,148,65,147.9,65.1z M145.5,67.9c0-0.2,0-0.4,0-0.5
		s0.1-0.2,0.1-0.4c0.1-0.3,0.5-0.4,1.2-0.4c0.5,0,0.8,0.1,1,0.3c0.2,0.1,0.3,0.4,0.3,0.6c0,0.1,0,0.2,0,0.4v5.3c0,0.2,0,0.4,0,0.5
		c0,0.1-0.1,0.2-0.1,0.4c-0.1,0.3-0.5,0.4-1.2,0.4c-0.6,0-1-0.1-1.2-0.4c-0.1-0.1-0.1-0.3-0.1-0.4s0-0.3,0-0.5V67.9z"/>
	<path class="st1" d="M153.7,66.6c1,0,1.8,0.4,2.5,1.1c0.7,0.8,1,1.7,1,2.8v2.6c0,0.2,0,0.4,0,0.5c0,0.1-0.1,0.2-0.1,0.4
		c-0.1,0.3-0.5,0.4-1.2,0.4c-0.7,0-1.1-0.2-1.2-0.6c-0.1-0.2-0.1-0.4-0.1-0.8v-2.6c0-0.4-0.1-0.7-0.4-1c-0.2-0.2-0.6-0.3-0.9-0.3
		c-0.4,0-0.7,0.1-1,0.4s-0.4,0.6-0.4,0.9v2.7c0,0.2,0,0.4,0,0.5c0,0.1-0.1,0.2-0.1,0.4c-0.1,0.3-0.5,0.4-1.2,0.4
		c-0.6,0-1-0.1-1.2-0.4c-0.1-0.2-0.1-0.3-0.1-0.4s0-0.3,0-0.5v-5.3c0-0.2,0-0.4,0-0.5s0.1-0.2,0.1-0.4c0.1-0.3,0.5-0.4,1.2-0.4
		c0.6,0,1,0.1,1.1,0.3c0.1,0.2,0.1,0.4,0.1,0.6c0-0.1,0.1-0.2,0.3-0.3s0.3-0.2,0.4-0.3C152.9,66.7,153.3,66.6,153.7,66.6z"/>
	<path class="st1" d="M163.4,73.5c-0.4,0.5-1,0.8-1.8,0.8s-1.6-0.4-2.3-1.1c-0.7-0.8-1.1-1.7-1.1-2.7c0-1,0.4-1.9,1.1-2.7
		c0.7-0.8,1.5-1.2,2.4-1.2c0.3,0,0.6,0.1,0.9,0.2c0.3,0.1,0.5,0.2,0.6,0.3c0.1,0.1,0.2,0.2,0.2,0.3c0-0.3,0.1-0.5,0.3-0.6
		c0.2-0.1,0.5-0.2,0.8-0.2c0.4,0,0.7,0,0.9,0.1c0.2,0.1,0.3,0.2,0.4,0.3c0.1,0.1,0.1,0.3,0.1,0.4c0,0.1,0,0.3,0,0.5v6.2
		c0,1.1-0.4,2.1-1.2,2.8c-0.8,0.7-1.7,1.1-2.7,1.1c-0.8,0-1.5-0.2-2.2-0.6s-1-0.7-1-1c0-0.4,0.1-0.7,0.5-1c0.2-0.2,0.3-0.4,0.4-0.4
		s0.2-0.1,0.4-0.1c0.1,0,0.3,0.1,0.4,0.2c0.5,0.4,1,0.6,1.6,0.6c0.4,0,0.7-0.2,0.9-0.5s0.4-0.7,0.4-1.1V73.5z M160.7,70.4
		c0,0.3,0.1,0.6,0.4,0.9c0.3,0.3,0.6,0.4,0.9,0.4c0.4,0,0.7-0.1,0.9-0.4c0.2-0.3,0.4-0.6,0.4-0.9c0-0.3-0.1-0.6-0.3-0.9
		s-0.5-0.4-0.9-0.4c-0.4,0-0.7,0.1-0.9,0.4C160.8,69.8,160.7,70.1,160.7,70.4z"/>
	<path class="st1" d="M175.6,66.6c0.7,0,1.1,0.2,1.2,0.6c0.1,0.2,0.1,0.4,0.1,0.8c0,0.3,0,0.6-0.1,0.7c-0.1,0.2-0.2,0.3-0.3,0.4
		c-0.2,0.1-0.5,0.2-0.9,0.2l-1-0.1v4c0,0.4,0,0.7-0.1,0.8c-0.1,0.2-0.2,0.3-0.4,0.4c-0.2,0.1-0.4,0.1-0.8,0.1c-0.3,0-0.6,0-0.7-0.1
		c-0.2-0.1-0.3-0.2-0.4-0.3c-0.1-0.1-0.1-0.3-0.1-0.4s0-0.3,0-0.5v-4h-0.5c-0.3,0-0.4-0.1-0.6-0.2c-0.2-0.2-0.3-0.6-0.3-1.1
		c0-0.8,0.3-1.2,0.9-1.2h0.5v-0.8c0-0.8,0.3-1.5,0.8-2.1c0.5-0.6,1.3-0.9,2.4-0.9c0.2,0,0.4,0,0.5,0c0.1,0,0.2,0.1,0.4,0.1
		c0.3,0.1,0.4,0.5,0.4,1.2c0,0.5-0.1,0.8-0.3,1c-0.1,0.2-0.4,0.3-0.7,0.3c-0.1,0-0.2,0-0.4,0c-0.4,0-0.6,0.1-0.6,0.4v0.8L175.6,66.6
		z"/>
	<path class="st1" d="M178.4,67.6c0.8-0.8,1.8-1.2,2.9-1.2s2,0.4,2.9,1.2c0.8,0.8,1.2,1.8,1.2,3c0,0.8-0.2,1.6-0.6,2.2
		c-0.4,0.6-1,1.1-1.6,1.4c-0.6,0.3-1.3,0.5-1.9,0.5s-1.3-0.2-1.9-0.5c-0.6-0.3-1.1-0.8-1.6-1.4c-0.4-0.6-0.6-1.4-0.6-2.2
		C177.2,69.4,177.6,68.4,178.4,67.6z M180.3,71.6c0.3,0.2,0.6,0.4,1,0.4s0.7-0.1,1-0.4s0.5-0.6,0.5-1.1c0-0.5-0.2-0.9-0.5-1.1
		s-0.6-0.4-1-0.4s-0.7,0.1-1,0.4c-0.3,0.3-0.5,0.6-0.5,1.1C179.8,71,180,71.4,180.3,71.6z"/>
	<path class="st1" d="M191.8,66.7c0.2,0.1,0.3,0.2,0.5,0.3c0.1,0.1,0.2,0.4,0.2,0.7c0,0.3-0.1,0.7-0.3,1c-0.2,0.4-0.5,0.6-0.8,0.6
		c-0.2,0-0.4,0-0.5-0.1s-0.4-0.1-0.7-0.1s-0.5,0.1-0.8,0.3c-0.2,0.2-0.4,0.4-0.4,0.7v3.2c0,0.2,0,0.4,0,0.5c0,0.1-0.1,0.2-0.1,0.4
		c-0.2,0.3-0.5,0.4-1.2,0.4c-0.5,0-0.8-0.1-1-0.3c-0.2-0.1-0.3-0.4-0.3-0.6c0-0.1,0-0.2,0-0.4v-5.3c0-0.2,0-0.4,0-0.5
		s0.1-0.2,0.1-0.4c0.1-0.3,0.5-0.4,1.2-0.4c0.6,0,1,0.1,1.1,0.3c0.1,0.2,0.2,0.3,0.2,0.5c0-0.1,0.1-0.2,0.2-0.3
		c0.1-0.1,0.3-0.2,0.6-0.4c0.3-0.2,0.6-0.3,0.8-0.3c0.2,0,0.4,0,0.6,0C191.4,66.6,191.6,66.6,191.8,66.7z"/>
	<path class="st1" d="M207.1,66.7c0.6,0.3,1,0.6,1,1c0,0.2-0.1,0.4-0.2,0.8c-0.2,0.4-0.3,0.7-0.4,1l-1.6,4c-0.1,0.4-0.4,0.8-0.8,0.9
		c-0.1,0.1-0.3,0.1-0.6,0.1c-0.2,0-0.5-0.1-0.7-0.3c-0.2-0.2-0.4-0.4-0.4-0.5l-0.1-0.3c-0.1-0.2-0.4-1-0.9-2.3
		c-0.1,0.2-0.2,0.6-0.4,1.2c-0.2,0.5-0.3,0.9-0.4,1c-0.1,0.1-0.1,0.2-0.1,0.3c0,0-0.1,0.1-0.1,0.2s-0.1,0.2-0.2,0.3
		c-0.2,0.2-0.5,0.4-0.8,0.4s-0.6-0.1-0.8-0.3c-0.2-0.2-0.4-0.4-0.4-0.5l-2.3-5.5c-0.1-0.3-0.1-0.5-0.1-0.6c0-0.4,0.3-0.7,0.9-0.9
		c0.3-0.1,0.6-0.2,0.8-0.2s0.4,0,0.5,0.1c0.1,0.1,0.2,0.2,0.3,0.3c0.1,0.1,0.1,0.2,0.1,0.3c0.2,0.4,0.5,1.3,1.1,2.8l0.9-2.4
		c0.1-0.2,0.2-0.4,0.3-0.5c0.3-0.3,0.6-0.4,0.9-0.4s0.6,0.1,0.8,0.2c0.2,0.2,0.4,0.3,0.4,0.5l0.1,0.3c0.5,1.4,0.8,2.2,0.9,2.4
		l0.9-2.5c0.2-0.6,0.6-1,1.1-1C206.7,66.5,206.9,66.6,207.1,66.7z"/>
	<path class="st1" d="M216.3,69.6c0,0.6-0.2,1.1-0.5,1.4c-0.3,0.3-0.6,0.4-1,0.4h-3.6c0,0.3,0.2,0.5,0.5,0.7c0.3,0.2,0.7,0.3,1,0.3
		c0.6,0,1-0.1,1.4-0.2l0.2-0.1c0.2-0.1,0.4-0.2,0.6-0.2c0.3,0,0.6,0.2,0.8,0.7c0.1,0.3,0.2,0.5,0.2,0.7c0,0.9-1.1,1.3-3.2,1.3
		c-0.7,0-1.4-0.1-2-0.4c-0.6-0.3-1-0.6-1.3-1c-0.6-0.8-0.9-1.7-0.9-2.7c0-1.3,0.4-2.3,1.2-3c0.8-0.8,1.8-1.1,3.1-1.1
		c1.4,0,2.4,0.5,3.1,1.5C216.1,68.4,216.3,69,216.3,69.6z M213.1,70c0.4,0,0.6-0.2,0.6-0.5c0-0.2-0.1-0.4-0.3-0.6
		c-0.2-0.1-0.4-0.2-0.8-0.2c-0.3,0-0.6,0.1-1,0.4c-0.3,0.3-0.5,0.5-0.5,0.8H213.1z"/>
	<path class="st1" d="M221.6,66.6c0.9,0,1.7,0.4,2.5,1.2c0.7,0.8,1.1,1.7,1.1,2.8s-0.4,2-1.1,2.7c-0.7,0.8-1.5,1.2-2.4,1.2
		c-0.8,0-1.5-0.2-1.8-0.7c-0.1,0.5-0.5,0.7-1.3,0.7c-0.6,0-1-0.1-1.2-0.4c-0.1-0.2-0.1-0.3-0.1-0.4s0-0.3,0-0.5v-9
		c0-0.2,0-0.4,0-0.5c0-0.1,0.1-0.2,0.1-0.4c0.1-0.3,0.5-0.4,1.2-0.4c0.6,0,1,0.1,1.1,0.4c0.1,0.2,0.1,0.3,0.1,0.4c0,0.1,0,0.3,0,0.5
		v3.1C220.2,66.9,220.8,66.6,221.6,66.6z M220.2,71.5c0.2,0.3,0.6,0.4,0.9,0.4s0.7-0.1,0.9-0.4c0.3-0.3,0.4-0.6,0.4-0.9
		s-0.1-0.6-0.4-0.9c-0.2-0.3-0.6-0.4-1-0.4s-0.7,0.1-1,0.4s-0.4,0.6-0.4,0.9S220,71.2,220.2,71.5z"/>
	<path class="st1" d="M235,67.4c0.1-0.6,0.5-0.8,1.2-0.8c0.4,0,0.7,0,0.9,0.1c0.2,0.1,0.3,0.2,0.4,0.3s0.1,0.3,0.1,0.4
		c0,0.1,0,0.3,0,0.5v5.3c0,0.2,0,0.4,0,0.5c0,0.1-0.1,0.2-0.1,0.4c-0.1,0.3-0.5,0.4-1,0.4c-0.5,0-0.9-0.1-1.1-0.2
		c-0.2-0.1-0.3-0.3-0.3-0.6c-0.4,0.5-1,0.8-1.9,0.8c-0.9,0-1.7-0.4-2.4-1.2s-1.1-1.7-1.1-2.8s0.4-2,1.1-2.7c0.7-0.8,1.6-1.2,2.5-1.2
		c0.3,0,0.6,0.1,0.9,0.2s0.5,0.2,0.6,0.3C234.9,67.2,235,67.3,235,67.4z M232.3,70.6c0,0.3,0.1,0.6,0.4,0.9c0.3,0.3,0.6,0.4,0.9,0.4
		s0.7-0.1,0.9-0.4c0.2-0.3,0.4-0.6,0.4-0.9s-0.1-0.6-0.4-0.9c-0.2-0.3-0.5-0.4-0.9-0.4c-0.4,0-0.7,0.1-1,0.4
		C232.4,69.9,232.3,70.2,232.3,70.6z"/>
	<path class="st1" d="M238.8,76.6v-8.8c0-0.2,0-0.4,0-0.5c0-0.1,0.1-0.2,0.1-0.4c0.1-0.3,0.5-0.4,1-0.4s0.9,0.1,1.1,0.2
		c0.2,0.1,0.3,0.3,0.3,0.6c0.4-0.5,1-0.8,1.8-0.8c0.8,0,1.6,0.4,2.3,1.2c0.7,0.8,1.1,1.7,1.1,2.7c0,1-0.4,1.9-1.1,2.7
		c-0.7,0.8-1.5,1.2-2.3,1.2c-0.8,0-1.4-0.2-1.8-0.7v3c0,0.2,0,0.4,0,0.5c0,0.1-0.1,0.2-0.1,0.4c-0.1,0.1-0.2,0.2-0.4,0.3
		c-0.2,0.1-0.4,0.1-0.7,0.1s-0.6,0-0.7-0.1c-0.2-0.1-0.3-0.2-0.4-0.3c-0.1-0.1-0.1-0.3-0.1-0.4C238.8,77,238.8,76.9,238.8,76.6z
		 M241.8,69.6c-0.2,0.3-0.3,0.6-0.3,0.9c0,0.3,0.1,0.6,0.4,0.9s0.5,0.4,0.9,0.4c0.4,0,0.7-0.1,0.9-0.4c0.3-0.3,0.4-0.6,0.4-0.9
		s-0.1-0.6-0.4-0.9c-0.2-0.3-0.6-0.4-0.9-0.4S242,69.3,241.8,69.6z"/>
	<path class="st1" d="M247.6,76.6v-8.8c0-0.2,0-0.4,0-0.5c0-0.1,0.1-0.2,0.1-0.4c0.1-0.3,0.5-0.4,1-0.4s0.9,0.1,1.1,0.2
		c0.2,0.1,0.3,0.3,0.3,0.6c0.4-0.5,1-0.8,1.8-0.8c0.8,0,1.6,0.4,2.3,1.2c0.7,0.8,1.1,1.7,1.1,2.7c0,1-0.4,1.9-1.1,2.7
		c-0.7,0.8-1.5,1.2-2.3,1.2s-1.4-0.2-1.8-0.7v3c0,0.2,0,0.4,0,0.5c0,0.1-0.1,0.2-0.1,0.4c-0.1,0.1-0.2,0.2-0.4,0.3
		c-0.2,0.1-0.4,0.1-0.7,0.1c-0.3,0-0.6,0-0.7-0.1c-0.2-0.1-0.3-0.2-0.4-0.3c-0.1-0.1-0.1-0.3-0.1-0.4
		C247.6,77,247.6,76.9,247.6,76.6z M250.5,69.6c-0.2,0.3-0.3,0.6-0.3,0.9c0,0.3,0.1,0.6,0.4,0.9c0.2,0.3,0.5,0.4,0.9,0.4
		s0.7-0.1,0.9-0.4c0.3-0.3,0.4-0.6,0.4-0.9s-0.1-0.6-0.4-0.9c-0.2-0.3-0.6-0.4-0.9-0.4C251.1,69.2,250.8,69.3,250.5,69.6z"/>
	<path class="st1" d="M256.3,64.2c0-0.2,0-0.4,0-0.5c0-0.1,0.1-0.2,0.1-0.4c0.1-0.3,0.5-0.4,1.2-0.4c0.6,0,1,0.1,1.1,0.4
		c0.1,0.1,0.1,0.3,0.1,0.4c0,0.1,0,0.3,0,0.5v6.9c0,0.4,0,0.6,0.1,0.7c0.1,0.1,0.2,0.1,0.4,0.1s0.3,0,0.4,0c0.1,0,0.2,0.1,0.3,0.1
		c0.2,0.1,0.3,0.5,0.3,1.1c0,0.6-0.1,1-0.3,1.2c-0.3,0.2-0.9,0.2-1.9,0.1c-0.8-0.1-1.3-0.4-1.5-0.8c-0.3-0.5-0.4-1.3-0.4-2.3V64.2z"
		/>
	<path class="st1" d="M263.7,65.1c-0.1,0.1-0.2,0.2-0.4,0.3c-0.2,0.1-0.4,0.1-0.8,0.1c-0.3,0-0.6,0-0.8-0.1
		c-0.2-0.1-0.3-0.2-0.4-0.3c-0.1-0.2-0.1-0.3-0.1-0.4c0-0.1,0-0.3,0-0.5c0-0.2,0-0.4,0-0.5c0-0.1,0.1-0.2,0.1-0.4
		c0.1-0.3,0.5-0.4,1.2-0.4c0.6,0,1,0.1,1.1,0.4c0.1,0.2,0.1,0.3,0.1,0.4c0,0.1,0,0.3,0,0.5c0,0.2,0,0.4,0,0.5
		C263.8,64.9,263.7,65,263.7,65.1z M261.2,67.9c0-0.2,0-0.4,0-0.5c0-0.1,0.1-0.2,0.1-0.4c0.1-0.3,0.5-0.4,1.2-0.4
		c0.5,0,0.8,0.1,1,0.3c0.2,0.1,0.3,0.4,0.3,0.6c0,0.1,0,0.2,0,0.4v5.3c0,0.2,0,0.4,0,0.5c0,0.1-0.1,0.2-0.1,0.4
		c-0.1,0.3-0.5,0.4-1.2,0.4c-0.6,0-1-0.1-1.2-0.4c-0.1-0.1-0.1-0.3-0.1-0.4c0-0.1,0-0.3,0-0.5V67.9z"/>
	<path class="st1" d="M267.5,70.5c0,0.4,0.1,0.8,0.4,1c0.3,0.2,0.6,0.4,0.9,0.4c0.3,0,0.6-0.1,0.9-0.3c0.3-0.2,0.5-0.3,0.7-0.3
		c0.3,0,0.7,0.3,1.1,0.8c0.2,0.3,0.3,0.5,0.3,0.8c0,0.4-0.3,0.7-0.8,1.1c-0.6,0.4-1.3,0.6-2.1,0.6c-0.9,0-1.8-0.3-2.7-1
		c-0.4-0.3-0.7-0.7-1-1.3c-0.3-0.5-0.4-1.1-0.4-1.8c0-0.6,0.1-1.2,0.4-1.8c0.3-0.5,0.6-0.9,1-1.3c0.8-0.7,1.7-1,2.7-1
		c0.4,0,0.8,0.1,1.1,0.2c0.4,0.1,0.6,0.2,0.8,0.3l0.2,0.2c0.2,0.1,0.3,0.2,0.4,0.3c0.3,0.2,0.4,0.4,0.4,0.7c0,0.3-0.1,0.5-0.3,0.9
		c-0.4,0.5-0.7,0.8-1,0.8c-0.2,0-0.5-0.1-0.8-0.3c-0.2-0.2-0.4-0.3-0.8-0.3s-0.6,0.1-0.9,0.4S267.5,70.1,267.5,70.5z"/>
	<path class="st1" d="M277.9,67.4c0.1-0.6,0.5-0.8,1.2-0.8c0.4,0,0.7,0,0.9,0.1c0.2,0.1,0.3,0.2,0.4,0.3c0.1,0.2,0.1,0.3,0.1,0.4
		s0,0.3,0,0.5v5.3c0,0.2,0,0.4,0,0.5s-0.1,0.2-0.1,0.4c-0.1,0.3-0.5,0.4-1,0.4s-0.9-0.1-1.1-0.2c-0.2-0.1-0.3-0.3-0.3-0.6
		c-0.4,0.5-1,0.8-1.9,0.8c-0.9,0-1.7-0.4-2.4-1.2s-1.1-1.7-1.1-2.8s0.4-2,1.1-2.7c0.7-0.8,1.6-1.2,2.5-1.2c0.3,0,0.7,0.1,0.9,0.2
		c0.3,0.1,0.5,0.2,0.6,0.3C277.8,67.2,277.8,67.3,277.9,67.4z M275.2,70.6c0,0.3,0.1,0.6,0.4,0.9c0.3,0.3,0.6,0.4,0.9,0.4
		s0.7-0.1,0.9-0.4c0.2-0.3,0.4-0.6,0.4-0.9s-0.1-0.6-0.4-0.9c-0.2-0.3-0.5-0.4-0.9-0.4s-0.7,0.1-1,0.4
		C275.3,69.9,275.2,70.2,275.2,70.6z"/>
	<path class="st1" d="M286.3,69.3l-1-0.1v2.1c0,0.3,0,0.5,0.1,0.6s0.2,0.2,0.5,0.2c0.2,0,0.4,0,0.5,0c0.1,0,0.3,0.1,0.4,0.1
		c0.2,0.1,0.3,0.5,0.3,1c0,0.6-0.1,1-0.4,1.2c-0.2,0.1-0.3,0.1-0.4,0.1c-0.1,0-0.3,0-0.5,0c-1,0-1.8-0.2-2.4-0.7
		c-0.5-0.5-0.8-1.3-0.8-2.4v-2.2c-0.2,0-0.4,0-0.6,0s-0.4-0.1-0.5-0.3c-0.1-0.2-0.2-0.5-0.2-0.9s0-0.7,0.1-0.9
		c0.1-0.2,0.1-0.3,0.2-0.4c0.2-0.1,0.4-0.2,0.6-0.2l0.5,0.1v-1.5c0-0.2,0-0.4,0-0.5c0-0.1,0.1-0.2,0.1-0.4c0.1-0.2,0.5-0.4,1.2-0.4
		c0.7,0,1.1,0.2,1.2,0.6c0,0.2,0.1,0.4,0.1,0.8v1.5c0.4,0,0.8-0.1,1-0.1c0.2,0,0.4,0,0.5,0s0.2,0.1,0.4,0.1c0.3,0.1,0.4,0.5,0.4,1.2
		c0,0.6-0.1,1-0.4,1.2c-0.2,0.1-0.3,0.1-0.4,0.1C286.7,69.2,286.5,69.3,286.3,69.3z"/>
	<path class="st1" d="M290.9,65.1c-0.1,0.1-0.2,0.2-0.4,0.3c-0.2,0.1-0.4,0.1-0.8,0.1c-0.3,0-0.6,0-0.8-0.1
		c-0.2-0.1-0.3-0.2-0.4-0.3c-0.1-0.2-0.1-0.3-0.1-0.4c0-0.1,0-0.3,0-0.5c0-0.2,0-0.4,0-0.5c0-0.1,0.1-0.2,0.1-0.4
		c0.1-0.3,0.5-0.4,1.2-0.4c0.6,0,1,0.1,1.1,0.4c0.1,0.2,0.1,0.3,0.1,0.4c0,0.1,0,0.3,0,0.5c0,0.2,0,0.4,0,0.5
		C291,64.9,291,65,290.9,65.1z M288.5,67.9c0-0.2,0-0.4,0-0.5c0-0.1,0.1-0.2,0.1-0.4c0.1-0.3,0.5-0.4,1.2-0.4c0.5,0,0.8,0.1,1,0.3
		c0.2,0.1,0.3,0.4,0.3,0.6c0,0.1,0,0.2,0,0.4v5.3c0,0.2,0,0.4,0,0.5c0,0.1-0.1,0.2-0.1,0.4c-0.1,0.3-0.5,0.4-1.2,0.4
		c-0.6,0-1-0.1-1.2-0.4c-0.1-0.1-0.1-0.3-0.1-0.4c0-0.1,0-0.3,0-0.5V67.9z"/>
	<path class="st1" d="M293.3,67.6c0.8-0.8,1.8-1.2,2.9-1.2s2,0.4,2.9,1.2c0.8,0.8,1.2,1.8,1.2,3c0,0.8-0.2,1.6-0.6,2.2
		c-0.4,0.6-1,1.1-1.6,1.4c-0.6,0.3-1.3,0.5-1.9,0.5s-1.3-0.2-1.9-0.5s-1.1-0.8-1.6-1.4c-0.4-0.6-0.6-1.4-0.6-2.2
		C292.1,69.4,292.5,68.4,293.3,67.6z M295.2,71.6c0.3,0.2,0.6,0.4,1,0.4s0.7-0.1,1-0.4s0.5-0.6,0.5-1.1c0-0.5-0.2-0.9-0.5-1.1
		c-0.3-0.2-0.6-0.4-1-0.4c-0.4,0-0.7,0.1-1,0.4s-0.5,0.6-0.5,1.1C294.7,71,294.9,71.4,295.2,71.6z"/>
	<path class="st1" d="M305.7,66.6c1,0,1.8,0.4,2.5,1.1c0.7,0.8,1,1.7,1,2.8v2.6c0,0.2,0,0.4,0,0.5c0,0.1-0.1,0.2-0.1,0.4
		c-0.1,0.3-0.5,0.4-1.2,0.4c-0.7,0-1.1-0.2-1.2-0.6c-0.1-0.2-0.1-0.4-0.1-0.8v-2.6c0-0.4-0.1-0.7-0.4-1c-0.2-0.2-0.6-0.3-0.9-0.3
		c-0.4,0-0.7,0.1-1,0.4s-0.4,0.6-0.4,0.9v2.7c0,0.2,0,0.4,0,0.5c0,0.1-0.1,0.2-0.1,0.4c-0.1,0.3-0.5,0.4-1.2,0.4
		c-0.6,0-1-0.1-1.2-0.4c-0.1-0.2-0.1-0.3-0.1-0.4c0-0.1,0-0.3,0-0.5v-5.3c0-0.2,0-0.4,0-0.5c0-0.1,0.1-0.2,0.1-0.4
		c0.1-0.3,0.5-0.4,1.2-0.4c0.6,0,1,0.1,1.1,0.3c0.1,0.2,0.2,0.4,0.2,0.6c0-0.1,0.1-0.2,0.3-0.3c0.1-0.1,0.3-0.2,0.4-0.3
		C304.9,66.7,305.3,66.6,305.7,66.6z"/>
	<path class="st1" d="M310.4,73.8c-0.2-0.1-0.3-0.3-0.3-0.6c0-0.3,0.2-0.7,0.6-1.2c0.1-0.2,0.3-0.3,0.5-0.3s0.6,0.1,1,0.4
		s0.8,0.4,1.1,0.4c0.6,0,0.9-0.1,0.9-0.4c0-0.2-0.3-0.3-1-0.4c-0.6-0.1-1.3-0.3-1.9-0.7c-0.3-0.2-0.5-0.5-0.7-0.8
		c-0.2-0.4-0.3-0.8-0.3-1.4c0-1.6,1.1-2.4,3.3-2.4c0.7,0,1.4,0.2,2.2,0.5c0.4,0.2,0.5,0.4,0.5,0.6c0,0.2-0.1,0.5-0.3,0.9
		c-0.2,0.3-0.4,0.5-0.7,0.5c-0.1,0-0.3-0.1-0.7-0.2c-0.3-0.2-0.7-0.2-1.1-0.2c-0.6,0-0.9,0.1-0.9,0.3c0,0.3,0.3,0.5,1,0.6
		c0.7,0.1,1.3,0.3,1.9,0.6c0.3,0.1,0.5,0.4,0.7,0.7c0.2,0.3,0.3,0.8,0.3,1.3c0,0.5-0.1,1-0.3,1.3c-0.2,0.4-0.5,0.6-0.8,0.8
		c-0.6,0.3-1.4,0.5-2.4,0.5S311.3,74.4,310.4,73.8z"/>
</g>
</svg>
