<svg id="Logo" xmlns="http://www.w3.org/2000/svg" viewBox="0 0 409.58 64.87"><defs><style>.cls-1{fill:#ddd;}.cls-2{fill:#fff;}.cls-3{isolation:isolate;}</style></defs><title>footwork-white</title><g id="foot"><path id="heel" class="cls-1" d="M36.06,34.15c-8.71,9.56-6,16.29-4.43,19.65,1.92,4.27,9.13,8.23,9,13.83-.05,2.19-2.14,4.33-5.34,5.29-3,.91-5.5,1.12-8.76-2.19A67.19,67.19,0,0,1,11.7,46.64Z" transform="translate(-7.24 -8.63)"/><g id="toes"><path class="cls-2" d="M28,19.08c-1.87-2.62-1.34-7.48,1-9.56a3,3,0,0,1,4.75.59,8,8,0,0,1-.05,8.65C32.05,21.17,29.59,21.33,28,19.08Z" transform="translate(-7.24 -8.63)"/><path class="cls-2" d="M22.49,14.17a5.74,5.74,0,0,1,1,6.2c-1,1.76-2.83,2-4.11.37a5.37,5.37,0,0,1-1.12-5C19.23,13.32,20.94,12.89,22.49,14.17Z" transform="translate(-7.24 -8.63)"/><path class="cls-2" d="M15.33,19.19a4.61,4.61,0,0,1,2,4.91,1.78,1.78,0,0,1-2.78,1.12,4.65,4.65,0,0,1-2-5A1.74,1.74,0,0,1,15.33,19.19Z" transform="translate(-7.24 -8.63)"/><path class="cls-2" d="M8.93,26.77A1.49,1.49,0,0,1,11,25.33a3.73,3.73,0,0,1,2.35,3.47,1.48,1.48,0,0,1-2.08,1.39A3.56,3.56,0,0,1,8.93,26.77Z" transform="translate(-7.24 -8.63)"/><path class="cls-2" d="M8.55,35.8a2.89,2.89,0,0,1-1.23-3.1,1.19,1.19,0,0,1,1.82-.85A2.92,2.92,0,0,1,10.42,35,1.23,1.23,0,0,1,8.55,35.8Z" transform="translate(-7.24 -8.63)"/><path class="cls-2" d="M31.36,22.56c6,.91,6.94,5.55,6.09,8.71C36.32,35.32,32,38.2,28.79,41.89,25,46.27,22.12,52.52,22.38,58.77c.16,4.11,4.11,12,4.11,12S19,64.11,13.2,50.92C4.44,31,26.6,21.86,31.36,22.56Z" transform="translate(-7.24 -8.63)"/></g></g><g id="footwork"><g class="cls-3"><path class="cls-2" d="M91,19.62a17.6,17.6,0,0,1,2.1.09,4.6,4.6,0,0,1,1.59.58,2.71,2.71,0,0,1,1.25,1.65A10.65,10.65,0,0,1,96.26,25a10.66,10.66,0,0,1-.37,3.11,2.56,2.56,0,0,1-1.28,1.62,5.23,5.23,0,0,1-1.62.55,18.31,18.31,0,0,1-2.17.09H72.17v6.16h12a18.31,18.31,0,0,1,2.17.09,4.88,4.88,0,0,1,1.62.58q1.58.92,1.59,4.82,0,4.27-2.32,5.06a11.38,11.38,0,0,1-3.11.3h-12V59a17.59,17.59,0,0,1-.09,2.13,4.91,4.91,0,0,1-.58,1.59q-.85,1.65-4.76,1.65-4.27,0-5-2.32a9.58,9.58,0,0,1-.37-3.11V25q0-3.11,1.16-4.24t4.39-1.13Z" transform="translate(-7.24 -8.63)"/><path class="cls-2" d="M121.21,19.07a21.65,21.65,0,0,1,15.68,6.53,21.79,21.79,0,0,1,6.65,16.2,23.27,23.27,0,0,1-6.34,16.47,20.51,20.51,0,0,1-15.62,6.8,21.13,21.13,0,0,1-15.77-6.71,22.18,22.18,0,0,1-6.5-16,24.56,24.56,0,0,1,1.83-9.48A22,22,0,0,1,106,25.48a22.86,22.86,0,0,1,7-4.7A20.46,20.46,0,0,1,121.21,19.07Zm-11.1,23a11.7,11.7,0,0,0,3.51,8.81,10.83,10.83,0,0,0,15.65.09,11.61,11.61,0,0,0,3.48-8.84,11.75,11.75,0,0,0-3.51-8.91,11.09,11.09,0,0,0-7.84-3.35,10.93,10.93,0,0,0-7.81,3.39A11.75,11.75,0,0,0,110.11,42.07Z" transform="translate(-7.24 -8.63)"/><path class="cls-2" d="M168.49,19.07a21.65,21.65,0,0,1,15.68,6.53,21.79,21.79,0,0,1,6.65,16.2,23.27,23.27,0,0,1-6.34,16.47,20.51,20.51,0,0,1-15.62,6.8,21.13,21.13,0,0,1-15.77-6.71,22.18,22.18,0,0,1-6.5-16,24.56,24.56,0,0,1,1.83-9.48,22,22,0,0,1,4.88-7.41,22.86,22.86,0,0,1,7-4.7A20.46,20.46,0,0,1,168.49,19.07Zm-11.1,23a11.7,11.7,0,0,0,3.51,8.81,10.83,10.83,0,0,0,15.65.09A11.61,11.61,0,0,0,180,42.13a11.75,11.75,0,0,0-3.51-8.91,11.09,11.09,0,0,0-7.84-3.35,10.93,10.93,0,0,0-7.81,3.39A11.75,11.75,0,0,0,157.38,42.07Z" transform="translate(-7.24 -8.63)"/><path class="cls-2" d="M194,19.56H228a6.75,6.75,0,0,1,2.87.46A2.31,2.31,0,0,1,232,21.45a8.82,8.82,0,0,1,.3,2.56,8.51,8.51,0,0,1-.3,2.53,2.1,2.1,0,0,1-1,1.31,7.12,7.12,0,0,1-3.11.55H216.25V59.09a16.9,16.9,0,0,1-.09,2.07,5,5,0,0,1-.55,1.56A2.59,2.59,0,0,1,214,64a10.4,10.4,0,0,1-3,.37,10.07,10.07,0,0,1-3-.37,2.57,2.57,0,0,1-1.59-1.25,4.91,4.91,0,0,1-.55-1.59,17.72,17.72,0,0,1-.09-2.1V28.4H194a6.73,6.73,0,0,1-2.87-.46,2.31,2.31,0,0,1-1.22-1.43,8.78,8.78,0,0,1-.31-2.56,8.47,8.47,0,0,1,.31-2.53,2.09,2.09,0,0,1,1-1.31A7.1,7.1,0,0,1,194,19.56Z" transform="translate(-7.24 -8.63)"/><path class="cls-2" d="M289.2,19.86q4.09,1.46,4.09,3.9a11.84,11.84,0,0,1-.73,3L280.85,60.61a6.32,6.32,0,0,1-.43,1,5.84,5.84,0,0,1-1.62,1.62,5.31,5.31,0,0,1-6.22,0,5.38,5.38,0,0,1-1.74-2l-7.14-21-6.89,20.37a5.33,5.33,0,0,1-.55,1,7.16,7.16,0,0,1-1,1.22,4.58,4.58,0,0,1-3.35,1.4,5.29,5.29,0,0,1-3.2-.92,5.08,5.08,0,0,1-1.68-1.83l-.43-.92L234.85,26.76a10.6,10.6,0,0,1-.67-3q0-2.44,4.09-3.84a9.93,9.93,0,0,1,3.2-.61,2.62,2.62,0,0,1,2.2,1,9.39,9.39,0,0,1,1.37,3l6.71,20.37,6.65-20.07A5.54,5.54,0,0,1,261.51,20a6.38,6.38,0,0,1,2.53-.43,4.73,4.73,0,0,1,2.9,1,4.79,4.79,0,0,1,1.71,2l7,21.17,6.71-20.5q.49-1.4.79-2.07a3.65,3.65,0,0,1,1.13-1.31,3.23,3.23,0,0,1,2-.64A8.46,8.46,0,0,1,289.2,19.86Z" transform="translate(-7.24 -8.63)"/><path class="cls-2" d="M317.63,19.07a21.65,21.65,0,0,1,15.68,6.53A21.79,21.79,0,0,1,340,41.79a23.27,23.27,0,0,1-6.34,16.47A20.51,20.51,0,0,1,318,65.07a21.13,21.13,0,0,1-15.77-6.71,22.18,22.18,0,0,1-6.5-16,24.57,24.57,0,0,1,1.83-9.48,22,22,0,0,1,4.88-7.41,22.85,22.85,0,0,1,7-4.7A20.46,20.46,0,0,1,317.63,19.07Zm-11.1,23A11.7,11.7,0,0,0,310,50.88a10.83,10.83,0,0,0,15.65.09,11.6,11.6,0,0,0,3.48-8.84,11.76,11.76,0,0,0-3.51-8.91,11.09,11.09,0,0,0-7.84-3.35A10.93,10.93,0,0,0,310,33.25,11.75,11.75,0,0,0,306.53,42.07Z" transform="translate(-7.24 -8.63)"/><path class="cls-2" d="M378.14,56.77a9.7,9.7,0,0,1,.91,3.17q0,2.32-3.78,3.9a8.4,8.4,0,0,1-3.14.85,3.13,3.13,0,0,1-2-.58,4.34,4.34,0,0,1-1.13-1.19q-.61-1.16-4.76-11L362.4,52h-7.69V58.9a17.85,17.85,0,0,1-.09,2.1,4.91,4.91,0,0,1-.58,1.62q-.85,1.65-4.76,1.65-4.27,0-5-2.26a10.19,10.19,0,0,1-.37-3.17V25a17.8,17.8,0,0,1,.09-2.1,4.88,4.88,0,0,1,.58-1.62q.85-1.65,4.76-1.65h13.18A16.92,16.92,0,0,1,373,23.52a14.32,14.32,0,0,1,4,5.12,16.13,16.13,0,0,1,1.59,7.2A15.15,15.15,0,0,1,374,47.19Q375.33,50.43,378.14,56.77ZM354.72,41.21h7.81a5.85,5.85,0,0,0,3.54-1.34,4.74,4.74,0,0,0,1.77-4,4.82,4.82,0,0,0-1.77-4.06,5.91,5.91,0,0,0-3.66-1.37h-7.69Z" transform="translate(-7.24 -8.63)"/><path class="cls-2" d="M401.56,41.88q9.33,9,13.24,13.48,2,2.26,2,3.81t-2.44,3.66q-2.44,2.1-4,2.1t-3.75-2.56L393.21,47.07V59a17.67,17.67,0,0,1-.09,2.13,4.92,4.92,0,0,1-.58,1.59q-.86,1.65-4.76,1.65-4.27,0-5-2.32a9.58,9.58,0,0,1-.37-3.11V25a17.85,17.85,0,0,1,.09-2.1,4.89,4.89,0,0,1,.58-1.62q.85-1.65,4.76-1.65,4.27,0,5.06,2.26a12.14,12.14,0,0,1,.31,3.17V36.7q8.29-9.33,13.42-15.31,2.13-2.5,3.72-2.5t4,2.1q2.44,2.1,2.44,3.66A6.15,6.15,0,0,1,415,28.34q-3.54,4.09-11,11.22Z" transform="translate(-7.24 -8.63)"/></g></g></svg>