<svg id="Logo" xmlns="http://www.w3.org/2000/svg" viewBox="0 0 414.25 78.1"><defs><style>.cls-1{fill:#1384ee;}.cls-2{isolation:isolate;}</style></defs><title>footwork</title><g id="foot"><path id="heel" d="M36.94,34.35C26.46,45.86,29.74,54,31.6,58c2.32,5.14,11,9.9,10.87,16.66C42.4,77.31,39.9,79.88,36,81c-3.6,1.09-6.62,1.35-10.55-2.64a80.89,80.89,0,0,1-17.88-29Z" transform="translate(-2.24 -3.63)"/><g id="toes"><path class="cls-1" d="M27.23,16.22c-2.25-3.15-1.61-9,1.22-11.51a3.66,3.66,0,0,1,5.72.71,9.69,9.69,0,0,1-.06,10.42C32.11,18.72,29.16,18.92,27.23,16.22Z" transform="translate(-2.24 -3.63)"/><path class="cls-1" d="M20.6,10.3a6.91,6.91,0,0,1,1.22,7.46c-1.22,2.12-3.41,2.38-5,.45a6.47,6.47,0,0,1-1.35-6C16.68,9.27,18.74,8.76,20.6,10.3Z" transform="translate(-2.24 -3.63)"/><path class="cls-1" d="M12,16.34a5.55,5.55,0,0,1,2.44,5.92,2.14,2.14,0,0,1-3.34,1.35,5.6,5.6,0,0,1-2.38-6A2.09,2.09,0,0,1,12,16.34Z" transform="translate(-2.24 -3.63)"/><path class="cls-1" d="M4.27,25.48a1.79,1.79,0,0,1,2.51-1.74,4.49,4.49,0,0,1,2.83,4.18A1.78,1.78,0,0,1,7.1,29.59,4.29,4.29,0,0,1,4.27,25.48Z" transform="translate(-2.24 -3.63)"/><path class="cls-1" d="M3.82,36.34a3.48,3.48,0,0,1-1.48-3.73,1.44,1.44,0,0,1,2.19-1,3.51,3.51,0,0,1,1.54,3.79A1.48,1.48,0,0,1,3.82,36.34Z" transform="translate(-2.24 -3.63)"/><path class="cls-1" d="M31.28,20.4c7.2,1.09,8.36,6.69,7.33,10.48-1.35,4.89-6.56,8.36-10.42,12.8-4.57,5.27-8,12.8-7.72,20.32.19,5,5,14.47,5,14.47s-9-8-16-23.92C-1.13,30.62,25.56,19.56,31.28,20.4Z" transform="translate(-2.24 -3.63)"/></g></g><g id="footwork"><g class="cls-2"><path d="M90.62,8.29a17.6,17.6,0,0,1,2.1.09A4.6,4.6,0,0,1,94.31,9a2.71,2.71,0,0,1,1.25,1.65,10.65,10.65,0,0,1,.37,3.11,10.66,10.66,0,0,1-.37,3.11,2.56,2.56,0,0,1-1.28,1.62,5.23,5.23,0,0,1-1.62.55,18.31,18.31,0,0,1-2.17.09H71.83v6.16h12a18.31,18.31,0,0,1,2.17.09,4.88,4.88,0,0,1,1.62.58q1.58.92,1.59,4.82,0,4.27-2.32,5.06a11.38,11.38,0,0,1-3.11.3h-12V47.63a17.59,17.59,0,0,1-.09,2.13,4.91,4.91,0,0,1-.58,1.59Q70.31,53,66.41,53q-4.27,0-5-2.32A9.58,9.58,0,0,1,61,47.57V13.66q0-3.11,1.16-4.24t4.39-1.13Z" transform="translate(-2.24 -3.63)"/><path d="M120.88,7.74a21.65,21.65,0,0,1,15.68,6.53,21.79,21.79,0,0,1,6.65,16.2,23.27,23.27,0,0,1-6.34,16.47,20.51,20.51,0,0,1-15.62,6.8A21.13,21.13,0,0,1,105.48,47,22.18,22.18,0,0,1,99,31a24.56,24.56,0,0,1,1.83-9.49,22,22,0,0,1,4.88-7.41,22.86,22.86,0,0,1,7-4.7A20.46,20.46,0,0,1,120.88,7.74Zm-11.1,23a11.7,11.7,0,0,0,3.51,8.81,10.83,10.83,0,0,0,15.65.09,11.61,11.61,0,0,0,3.48-8.84,11.76,11.76,0,0,0-3.51-8.91,11.09,11.09,0,0,0-7.84-3.35,10.93,10.93,0,0,0-7.81,3.39A11.75,11.75,0,0,0,109.78,30.74Z" transform="translate(-2.24 -3.63)"/><path d="M168.15,7.74a21.65,21.65,0,0,1,15.68,6.53,21.79,21.79,0,0,1,6.65,16.2,23.27,23.27,0,0,1-6.34,16.47,20.51,20.51,0,0,1-15.62,6.8A21.13,21.13,0,0,1,152.75,47a22.18,22.18,0,0,1-6.5-16,24.56,24.56,0,0,1,1.83-9.49A22,22,0,0,1,153,14.14a22.86,22.86,0,0,1,7-4.7A20.46,20.46,0,0,1,168.15,7.74Zm-11.1,23a11.7,11.7,0,0,0,3.51,8.81,10.83,10.83,0,0,0,15.65.09,11.61,11.61,0,0,0,3.48-8.84,11.76,11.76,0,0,0-3.51-8.91,11.09,11.09,0,0,0-7.84-3.35,10.93,10.93,0,0,0-7.81,3.39A11.75,11.75,0,0,0,157.05,30.74Z" transform="translate(-2.24 -3.63)"/><path d="M193.71,8.23h33.92a6.75,6.75,0,0,1,2.87.46,2.31,2.31,0,0,1,1.22,1.43,8.82,8.82,0,0,1,.3,2.56,8.51,8.51,0,0,1-.3,2.53,2.1,2.1,0,0,1-1,1.31,7.12,7.12,0,0,1-3.11.55H215.92V47.75a16.9,16.9,0,0,1-.09,2.07,5,5,0,0,1-.55,1.56,2.59,2.59,0,0,1-1.62,1.25,10.4,10.4,0,0,1-3,.37,10.07,10.07,0,0,1-3-.37A2.57,2.57,0,0,1,206,51.38a4.91,4.91,0,0,1-.55-1.59,17.72,17.72,0,0,1-.09-2.1V17.07H193.65a6.73,6.73,0,0,1-2.87-.46,2.31,2.31,0,0,1-1.22-1.43,8.78,8.78,0,0,1-.31-2.56,8.47,8.47,0,0,1,.31-2.53,2.09,2.09,0,0,1,1-1.31A7.1,7.1,0,0,1,193.71,8.23Z" transform="translate(-2.24 -3.63)"/><path d="M288.87,8.53Q293,10,293,12.43a11.81,11.81,0,0,1-.73,3L280.51,49.28a6.3,6.3,0,0,1-.43,1,5.85,5.85,0,0,1-1.62,1.62,5.31,5.31,0,0,1-6.22,0,5.39,5.39,0,0,1-1.74-2l-7.14-21-6.89,20.37a5.33,5.33,0,0,1-.55,1,7.16,7.16,0,0,1-1,1.22,4.58,4.58,0,0,1-3.36,1.4,5.29,5.29,0,0,1-3.2-.92,5.09,5.09,0,0,1-1.68-1.83l-.43-.92L234.52,15.42a10.64,10.64,0,0,1-.67-3q0-2.44,4.09-3.84a9.94,9.94,0,0,1,3.2-.61,2.62,2.62,0,0,1,2.2,1,9.39,9.39,0,0,1,1.37,3l6.71,20.37,6.65-20.07a5.54,5.54,0,0,1,3.11-3.54,6.38,6.38,0,0,1,2.53-.43,4.73,4.73,0,0,1,2.9,1,4.77,4.77,0,0,1,1.71,2l7,21.17L282,11.95q.49-1.4.79-2.07A3.64,3.64,0,0,1,284,8.56a3.23,3.23,0,0,1,2-.64A8.47,8.47,0,0,1,288.87,8.53Z" transform="translate(-2.24 -3.63)"/><path d="M317.3,7.74A21.65,21.65,0,0,1,333,14.26a21.79,21.79,0,0,1,6.65,16.2,23.27,23.27,0,0,1-6.34,16.47,20.51,20.51,0,0,1-15.62,6.8A21.13,21.13,0,0,1,301.89,47a22.18,22.18,0,0,1-6.5-16,24.55,24.55,0,0,1,1.83-9.49,22,22,0,0,1,4.88-7.41,22.86,22.86,0,0,1,7-4.7A20.47,20.47,0,0,1,317.3,7.74Zm-11.1,23a11.7,11.7,0,0,0,3.51,8.81,10.83,10.83,0,0,0,15.65.09,11.61,11.61,0,0,0,3.48-8.84,11.75,11.75,0,0,0-3.51-8.91,11.09,11.09,0,0,0-7.84-3.35,10.93,10.93,0,0,0-7.81,3.39A11.76,11.76,0,0,0,306.19,30.74Z" transform="translate(-2.24 -3.63)"/><path d="M377.81,45.44a9.7,9.7,0,0,1,.91,3.17q0,2.32-3.78,3.9a8.4,8.4,0,0,1-3.14.85,3.13,3.13,0,0,1-2-.58,4.34,4.34,0,0,1-1.13-1.19q-.61-1.16-4.76-11l-1.89.12h-7.69v6.89a17.59,17.59,0,0,1-.09,2.1,4.88,4.88,0,0,1-.58,1.62q-.86,1.65-4.76,1.65-4.27,0-5-2.26a10.19,10.19,0,0,1-.37-3.17V13.66a17.59,17.59,0,0,1,.09-2.1,4.86,4.86,0,0,1,.58-1.62q.85-1.65,4.76-1.65h13.18a16.92,16.92,0,0,1,10.43,3.9,14.32,14.32,0,0,1,4,5.12,16.13,16.13,0,0,1,1.59,7.2,15.15,15.15,0,0,1-4.57,11.35Q375,39.09,377.81,45.44ZM354.38,29.88h7.81a5.85,5.85,0,0,0,3.54-1.34,4.74,4.74,0,0,0,1.77-4,4.82,4.82,0,0,0-1.77-4.06,5.91,5.91,0,0,0-3.66-1.37h-7.69Z" transform="translate(-2.24 -3.63)"/><path d="M401.23,30.55q9.33,9,13.24,13.48,2,2.26,2,3.81T414,51.51q-2.44,2.1-4,2.1T406.29,51L392.88,35.74V47.63a17.67,17.67,0,0,1-.09,2.13,4.92,4.92,0,0,1-.58,1.59Q391.35,53,387.45,53q-4.27,0-5-2.32a9.58,9.58,0,0,1-.37-3.11V13.66a17.85,17.85,0,0,1,.09-2.1,4.89,4.89,0,0,1,.58-1.62q.85-1.65,4.76-1.65,4.27,0,5.06,2.26a12.14,12.14,0,0,1,.31,3.17V25.37q8.29-9.33,13.42-15.31,2.13-2.5,3.72-2.5t4,2.1q2.44,2.1,2.44,3.66A6.15,6.15,0,0,1,414.65,17q-3.54,4.09-11,11.22Z" transform="translate(-2.24 -3.63)"/></g></g><path class="cls-1" d="M67.94,64.29,72,72.66a2,2,0,0,1,.25.76q0,.54-.87,1a2,2,0,0,1-.8.26.8.8,0,0,1-.48-.14.89.89,0,0,1-.27-.28l-.23-.45-.78-1.62H64.66l-.78,1.62q-.15.3-.23.43a1.07,1.07,0,0,1-.27.28.77.77,0,0,1-.48.14,2,2,0,0,1-.8-.25q-.87-.42-.87-1a2,2,0,0,1,.25-.76l4-8.39a1.38,1.38,0,0,1,1.22-.76A1.27,1.27,0,0,1,67.94,64.29Zm-1.21,3.6-1,2.06h2Z" transform="translate(-2.24 -3.63)"/><path class="cls-1" d="M76.93,73.79a.62.62,0,0,1-.29-.57A2.47,2.47,0,0,1,77.21,72a.59.59,0,0,1,.53-.25,2.19,2.19,0,0,1,1,.37,2.31,2.31,0,0,0,1.14.37q.91,0,.91-.36t-1-.42A4.91,4.91,0,0,1,77.92,71a2,2,0,0,1-.72-.85,3.06,3.06,0,0,1-.29-1.37q0-2.37,3.25-2.37a5.29,5.29,0,0,1,2.19.51q.53.24.53.6a1.78,1.78,0,0,1-.33.89q-.33.52-.68.52a2,2,0,0,1-.67-.22,2.49,2.49,0,0,0-1.06-.23q-.88,0-.88.33t1,.58a5.6,5.6,0,0,1,1.92.57,1.7,1.7,0,0,1,.73.73,2.61,2.61,0,0,1,.29,1.3,2.79,2.79,0,0,1-.29,1.33,1.9,1.9,0,0,1-.82.82,5.5,5.5,0,0,1-2.41.46A5.14,5.14,0,0,1,76.93,73.79Z" transform="translate(-2.24 -3.63)"/><path class="cls-1" d="M85.24,67.58a4.12,4.12,0,0,1,5.75,0,4.14,4.14,0,0,1,.6,5.18A4,4,0,0,1,90,74.18a4.26,4.26,0,0,1-1.91.46,4.08,4.08,0,0,1-1.92-.49,4.25,4.25,0,0,1-1.57-1.44A3.78,3.78,0,0,1,84,70.55,3.88,3.88,0,0,1,85.24,67.58Zm1.88,4a1.59,1.59,0,0,0,1,.37,1.64,1.64,0,0,0,1-.37,1.51,1.51,0,0,0,0-2.21,1.61,1.61,0,0,0-1-.36,1.57,1.57,0,0,0-1,.38,1.33,1.33,0,0,0-.47,1.1A1.29,1.29,0,0,0,87.11,71.63Z" transform="translate(-2.24 -3.63)"/><path class="cls-1" d="M93.2,64.2a4.33,4.33,0,0,1,0-.52,1.38,1.38,0,0,1,.13-.4q.21-.41,1.17-.41t1.14.41a1.2,1.2,0,0,1,.14.4,4.66,4.66,0,0,1,0,.53v6.95a1.57,1.57,0,0,0,.09.68c.06.09.19.14.4.14a2.34,2.34,0,0,1,.41,0,.76.76,0,0,1,.25.13q.3.19.3,1.07T97,74.35a3.25,3.25,0,0,1-1.86.09,1.87,1.87,0,0,1-1.5-.77,4.92,4.92,0,0,1-.42-2.34Z" transform="translate(-2.24 -3.63)"/><path class="cls-1" d="M100.58,65.13a.64.64,0,0,1-.4.31,3.24,3.24,0,0,1-1.52,0,.63.63,0,0,1-.4-.32,1.3,1.3,0,0,1-.13-.4,6,6,0,0,1,0-1,1.23,1.23,0,0,1,.13-.38q.21-.4,1.17-.4t1.14.4a1.21,1.21,0,0,1,.14.4,6,6,0,0,1,0,1A1.22,1.22,0,0,1,100.58,65.13Zm-2.47,2.78a4.34,4.34,0,0,1,0-.52,1.39,1.39,0,0,1,.13-.4q.21-.39,1.17-.39a1.59,1.59,0,0,1,1,.25.83.83,0,0,1,.27.64c0,.1,0,.25,0,.44V73.2a4.45,4.45,0,0,1,0,.52,1.21,1.21,0,0,1-.14.4q-.2.39-1.16.39t-1.15-.41a1.38,1.38,0,0,1-.13-.39,4.31,4.31,0,0,1,0-.53Z" transform="translate(-2.24 -3.63)"/><path class="cls-1" d="M107.24,63.3a.63.63,0,0,1,.4-.31,3.24,3.24,0,0,1,1.52,0,.63.63,0,0,1,.4.31,1.3,1.3,0,0,1,.14.4,4.45,4.45,0,0,1,0,.52v9a4.42,4.42,0,0,1,0,.52,1.07,1.07,0,0,1-.14.38q-.22.4-1.27.41t-1.16-.74a2.21,2.21,0,0,1-1.75.72,3.33,3.33,0,0,1-2.46-1.18,4,4,0,0,1,0-5.5,3.33,3.33,0,0,1,2.45-1.18,2.11,2.11,0,0,1,1.73.75V64.21a4.34,4.34,0,0,1,0-.52A1.22,1.22,0,0,1,107.24,63.3Zm-2.44,8.15a1.27,1.27,0,0,0,.95.41,1.2,1.2,0,0,0,.92-.41,1.3,1.3,0,0,0,.37-.89,1.39,1.39,0,0,0-.35-.91,1.18,1.18,0,0,0-1-.42,1.21,1.21,0,0,0-1,.41,1.35,1.35,0,0,0-.36.91A1.27,1.27,0,0,0,104.8,71.46Z" transform="translate(-2.24 -3.63)"/><path class="cls-1" d="M119.32,66.61q1,0,1.21.57a2.56,2.56,0,0,1,.09.75,2.32,2.32,0,0,1-.1.74.71.71,0,0,1-.31.4,1.87,1.87,0,0,1-.92.18l-1-.06v4a1.94,1.94,0,0,1-.14.85.71.71,0,0,1-.44.37,2.62,2.62,0,0,1-.76.09,2.32,2.32,0,0,1-.74-.1.69.69,0,0,1-.4-.32,1.13,1.13,0,0,1-.14-.4,4.54,4.54,0,0,1,0-.53v-4h-.54a.93.93,0,0,1-.56-.18,1.57,1.57,0,0,1-.28-1.1q0-1.23.88-1.23h.5v-.79a3.09,3.09,0,0,1,.83-2.09,3,3,0,0,1,2.38-.94l.52,0a1.19,1.19,0,0,1,.4.14q.41.19.4,1.16a1.66,1.66,0,0,1-.25,1,.92.92,0,0,1-.66.27h-.42q-.56,0-.55.38v.83Z" transform="translate(-2.24 -3.63)"/><path class="cls-1" d="M122.18,67.58a4.12,4.12,0,0,1,5.75,0,4.14,4.14,0,0,1,.6,5.18A4,4,0,0,1,127,74.18a4.26,4.26,0,0,1-1.91.46,4.08,4.08,0,0,1-1.92-.49,4.25,4.25,0,0,1-1.57-1.44,3.78,3.78,0,0,1-.64-2.15A3.88,3.88,0,0,1,122.18,67.58Zm1.88,4a1.59,1.59,0,0,0,1,.37,1.64,1.64,0,0,0,1-.37,1.51,1.51,0,0,0,0-2.21,1.61,1.61,0,0,0-1-.36,1.57,1.57,0,0,0-1,.38,1.33,1.33,0,0,0-.47,1.1A1.29,1.29,0,0,0,124.06,71.63Z" transform="translate(-2.24 -3.63)"/><path class="cls-1" d="M131.18,67.58a4.12,4.12,0,0,1,5.75,0,4.14,4.14,0,0,1,.6,5.18A4,4,0,0,1,136,74.18a4.26,4.26,0,0,1-1.91.46,4.08,4.08,0,0,1-1.92-.49,4.25,4.25,0,0,1-1.57-1.44,3.78,3.78,0,0,1-.64-2.15A3.88,3.88,0,0,1,131.18,67.58Zm1.88,4a1.59,1.59,0,0,0,1,.37,1.64,1.64,0,0,0,1-.37,1.51,1.51,0,0,0,0-2.21,1.61,1.61,0,0,0-1-.36,1.57,1.57,0,0,0-1,.38,1.33,1.33,0,0,0-.47,1.1A1.29,1.29,0,0,0,133.06,71.63Z" transform="translate(-2.24 -3.63)"/><path class="cls-1" d="M143.51,69.25l-1-.06v2.07a1,1,0,0,0,.13.58.55.55,0,0,0,.48.18,4.72,4.72,0,0,1,.54,0,1.06,1.06,0,0,1,.4.14q.34.19.35,1T144,74.35a1.37,1.37,0,0,1-.4.13l-.5,0a3.51,3.51,0,0,1-2.37-.71,3,3,0,0,1-.81-2.38V69.19a4,4,0,0,1-.61,0,.69.69,0,0,1-.55-.25,1.35,1.35,0,0,1-.22-.87,3.79,3.79,0,0,1,.07-.89.8.8,0,0,1,.21-.4.92.92,0,0,1,.6-.2l.5.06V65.14a4.14,4.14,0,0,1,0-.51,1,1,0,0,1,.14-.36c.13-.25.52-.37,1.15-.37s1.08.19,1.22.56a2.81,2.81,0,0,1,.07.76v1.47c.44,0,.77-.06,1-.06l.51,0a1.19,1.19,0,0,1,.4.14q.39.19.39,1.16t-.4,1.15a1.37,1.37,0,0,1-.4.13Z" transform="translate(-2.24 -3.63)"/><path class="cls-1" d="M148.13,65.13a.64.64,0,0,1-.4.31,3.24,3.24,0,0,1-1.52,0,.63.63,0,0,1-.4-.32,1.3,1.3,0,0,1-.13-.4,6,6,0,0,1,0-1,1.23,1.23,0,0,1,.13-.38q.21-.4,1.17-.4t1.14.4a1.21,1.21,0,0,1,.14.4,6,6,0,0,1,0,1A1.22,1.22,0,0,1,148.13,65.13Zm-2.47,2.78a4.34,4.34,0,0,1,0-.52,1.39,1.39,0,0,1,.13-.4q.21-.39,1.17-.39a1.59,1.59,0,0,1,1,.25.83.83,0,0,1,.27.64c0,.1,0,.25,0,.44V73.2a4.45,4.45,0,0,1,0,.52,1.21,1.21,0,0,1-.14.4q-.2.39-1.16.39t-1.15-.41a1.38,1.38,0,0,1-.13-.39,4.31,4.31,0,0,1,0-.53Z" transform="translate(-2.24 -3.63)"/><path class="cls-1" d="M153.88,66.59a3.17,3.17,0,0,1,2.5,1.15,4.12,4.12,0,0,1,1,2.8v2.64a4.29,4.29,0,0,1,0,.52,1.22,1.22,0,0,1-.13.38q-.21.4-1.17.41t-1.23-.56a2.44,2.44,0,0,1-.09-.76V70.53a1.21,1.21,0,0,0-1.3-1.31,1.31,1.31,0,0,0-1,.36,1.26,1.26,0,0,0-.37.95v2.65a4.42,4.42,0,0,1,0,.52,1.07,1.07,0,0,1-.14.38q-.2.4-1.16.41t-1.15-.41a1.39,1.39,0,0,1-.13-.4,4.33,4.33,0,0,1,0-.52V67.86a4.16,4.16,0,0,1,0-.5,1.07,1.07,0,0,1,.14-.38q.21-.37,1.15-.37t1.13.35a1.19,1.19,0,0,1,.15.61,1.54,1.54,0,0,1,.27-.3,2.63,2.63,0,0,1,.41-.31A2,2,0,0,1,153.88,66.59Z" transform="translate(-2.24 -3.63)"/><path class="cls-1" d="M163.58,73.51a2.13,2.13,0,0,1-1.81.75,3.2,3.2,0,0,1-2.33-1.15,3.84,3.84,0,0,1,0-5.36,3.27,3.27,0,0,1,2.4-1.16,2.25,2.25,0,0,1,.93.19,2,2,0,0,1,.58.35,2,2,0,0,1,.25.29.92.92,0,0,1,.31-.64,1.33,1.33,0,0,1,.85-.22,2.92,2.92,0,0,1,.85.09A.63.63,0,0,1,166,67a1.21,1.21,0,0,1,.13.38,4.14,4.14,0,0,1,0,.51v6.21a3.53,3.53,0,0,1-1.2,2.78,4,4,0,0,1-2.7,1.06,4.54,4.54,0,0,1-2.17-.56q-1-.56-1-1a1.42,1.42,0,0,1,.45-1,3.75,3.75,0,0,1,.44-.43.59.59,0,0,1,.37-.12.71.71,0,0,1,.43.18,2.5,2.5,0,0,0,1.56.56,1.14,1.14,0,0,0,.93-.45,1.67,1.67,0,0,0,.36-1.08Zm-2.67-3.07a1.22,1.22,0,0,0,.38.88,1.25,1.25,0,0,0,.93.39,1.17,1.17,0,0,0,.91-.4,1.27,1.27,0,0,0,.36-.87,1.36,1.36,0,0,0-.35-.88,1.15,1.15,0,0,0-.93-.41,1.21,1.21,0,0,0-.95.41A1.32,1.32,0,0,0,160.91,70.44Z" transform="translate(-2.24 -3.63)"/><path class="cls-1" d="M175.76,66.61q1,0,1.21.57a2.56,2.56,0,0,1,.09.75,2.32,2.32,0,0,1-.1.74.71.71,0,0,1-.31.4,1.87,1.87,0,0,1-.92.18l-1-.06v4a1.94,1.94,0,0,1-.14.85.71.71,0,0,1-.44.37,2.62,2.62,0,0,1-.76.09,2.32,2.32,0,0,1-.74-.1.69.69,0,0,1-.4-.32,1.13,1.13,0,0,1-.14-.4,4.54,4.54,0,0,1,0-.53v-4h-.54a.93.93,0,0,1-.56-.18,1.57,1.57,0,0,1-.28-1.1q0-1.23.88-1.23h.5v-.79a3.09,3.09,0,0,1,.83-2.09,3,3,0,0,1,2.38-.94l.52,0a1.19,1.19,0,0,1,.4.14q.41.19.4,1.16a1.66,1.66,0,0,1-.25,1,.92.92,0,0,1-.66.27h-.42q-.56,0-.55.38v.83Z" transform="translate(-2.24 -3.63)"/><path class="cls-1" d="M178.63,67.58a4.12,4.12,0,0,1,5.75,0,4.14,4.14,0,0,1,.6,5.18,4,4,0,0,1-1.57,1.42,4.26,4.26,0,0,1-1.91.46,4.08,4.08,0,0,1-1.92-.49A4.25,4.25,0,0,1,178,72.71a3.78,3.78,0,0,1-.64-2.15A3.88,3.88,0,0,1,178.63,67.58Zm1.88,4a1.59,1.59,0,0,0,1,.37,1.64,1.64,0,0,0,1-.37,1.51,1.51,0,0,0,0-2.21,1.61,1.61,0,0,0-1-.36,1.57,1.57,0,0,0-1,.38,1.33,1.33,0,0,0-.47,1.1A1.29,1.29,0,0,0,180.5,71.63Z" transform="translate(-2.24 -3.63)"/><path class="cls-1" d="M192,66.68a1,1,0,0,1,.47.31,1.06,1.06,0,0,1,.19.7,2.38,2.38,0,0,1-.28,1,.89.89,0,0,1-.83.57,1.17,1.17,0,0,1-.52-.12,1.5,1.5,0,0,0-.65-.12,1.18,1.18,0,0,0-.76.29.86.86,0,0,0-.35.69V73.2a4.32,4.32,0,0,1,0,.52,1.21,1.21,0,0,1-.14.4q-.23.39-1.17.39a1.65,1.65,0,0,1-1-.25.9.9,0,0,1-.27-.65V67.9a4.33,4.33,0,0,1,0-.52,1.23,1.23,0,0,1,.13-.38q.21-.4,1.17-.41t1.13.35a.86.86,0,0,1,.17.49,2.6,2.6,0,0,1,.22-.25,2.79,2.79,0,0,1,.61-.4,1.75,1.75,0,0,1,.82-.26,3.86,3.86,0,0,1,.59,0A3.72,3.72,0,0,1,192,66.68Z" transform="translate(-2.24 -3.63)"/><path class="cls-1" d="M207.35,66.66q1,.42,1,1a2.44,2.44,0,0,1-.24.82q-.24.56-.41,1l-1.65,4a1.55,1.55,0,0,1-.75.93,1.36,1.36,0,0,1-.57.1,1,1,0,0,1-.67-.26,1.34,1.34,0,0,1-.43-.53l-.12-.25q-.12-.3-.88-2.34-.15.36-.44,1.18t-.37,1l-.1.27a1.68,1.68,0,0,1-.13.25,1.53,1.53,0,0,1-.24.31,1.14,1.14,0,0,1-.83.36,1.17,1.17,0,0,1-.78-.26,1.37,1.37,0,0,1-.42-.53L197,68.23a2.51,2.51,0,0,1-.15-.59q0-.6.85-.94a2.2,2.2,0,0,1,.78-.2.86.86,0,0,1,.75.38,1.32,1.32,0,0,1,.12.26q.25.6,1.06,2.82l.89-2.43a1.18,1.18,0,0,1,.33-.53,1.21,1.21,0,0,1,1.66-.19,1.44,1.44,0,0,1,.44.48l.12.25q.75,2.1.89,2.4l.91-2.49q.36-1,1.08-1A1.39,1.39,0,0,1,207.35,66.66Z" transform="translate(-2.24 -3.63)"/><path class="cls-1" d="M216.46,69.6A1.82,1.82,0,0,1,216,71a1.43,1.43,0,0,1-1,.44h-3.56a.82.82,0,0,0,.5.71,2,2,0,0,0,1,.29,4.12,4.12,0,0,0,1.36-.18l.17-.06A1.51,1.51,0,0,1,215,72q.48,0,.82.67a1.66,1.66,0,0,1,.2.69q0,1.33-3.2,1.33a4.82,4.82,0,0,1-2-.38,3.35,3.35,0,0,1-1.34-1,4.31,4.31,0,0,1-.94-2.71,3.92,3.92,0,0,1,1.22-3,4.32,4.32,0,0,1,3.05-1.13,3.41,3.41,0,0,1,3.06,1.47A3,3,0,0,1,216.46,69.6Zm-3.17.44q.57,0,.57-.48a.68.68,0,0,0-.26-.56,1.18,1.18,0,0,0-.75-.21,1.52,1.52,0,0,0-1,.4,1.12,1.12,0,0,0-.48.85Z" transform="translate(-2.24 -3.63)"/><path class="cls-1" d="M221.77,66.61a3.33,3.33,0,0,1,2.45,1.18,4,4,0,0,1,0,5.5,3.26,3.26,0,0,1-2.39,1.18,2.12,2.12,0,0,1-1.81-.72q-.12.74-1.29.74-.94,0-1.15-.41a1.39,1.39,0,0,1-.13-.4,4.33,4.33,0,0,1,0-.52v-9a4.34,4.34,0,0,1,0-.52,1.23,1.23,0,0,1,.13-.38q.21-.4,1.17-.4t1.14.4a1.21,1.21,0,0,1,.14.4,4.45,4.45,0,0,1,0,.52v3.12A2.08,2.08,0,0,1,221.77,66.61Zm-1.31,4.84a1.19,1.19,0,0,0,.92.41,1.36,1.36,0,0,0,1.33-1.31,1.35,1.35,0,0,0-.36-.91,1.21,1.21,0,0,0-1-.41,1.18,1.18,0,0,0-1,.42,1.39,1.39,0,0,0-.35.91A1.3,1.3,0,0,0,220.46,71.46Z" transform="translate(-2.24 -3.63)"/><path class="cls-1" d="M235.24,67.43q.09-.84,1.19-.84a3.13,3.13,0,0,1,.87.09.63.63,0,0,1,.4.32,1.3,1.3,0,0,1,.13.4,4.45,4.45,0,0,1,0,.52v5.25a4.44,4.44,0,0,1,0,.52,1.37,1.37,0,0,1-.13.4q-.21.39-1,.39a2,2,0,0,1-1.09-.2.8.8,0,0,1-.32-.59,2.1,2.1,0,0,1-1.85.79A3.27,3.27,0,0,1,231,73.29a3.9,3.9,0,0,1-1.11-2.75A3.86,3.86,0,0,1,231,67.79a3.34,3.34,0,0,1,2.45-1.18,2.34,2.34,0,0,1,.93.18,1.67,1.67,0,0,1,.85.64Zm-2.73,3.12a1.24,1.24,0,0,0,.39.89,1.27,1.27,0,0,0,.94.4,1.19,1.19,0,0,0,.92-.4,1.3,1.3,0,0,0,.37-.89,1.39,1.39,0,0,0-.35-.91,1.17,1.17,0,0,0-.95-.42,1.21,1.21,0,0,0-1,.42A1.36,1.36,0,0,0,232.51,70.55Z" transform="translate(-2.24 -3.63)"/><path class="cls-1" d="M239,76.64V67.88a4,4,0,0,1,0-.51,1.21,1.21,0,0,1,.13-.37c.14-.27.47-.41,1-.41a2,2,0,0,1,1.07.2.81.81,0,0,1,.32.59,2.07,2.07,0,0,1,1.79-.78,3.19,3.19,0,0,1,2.32,1.15,3.85,3.85,0,0,1,0,5.37,3.17,3.17,0,0,1-2.32,1.16,2.15,2.15,0,0,1-1.79-.69v3a4,4,0,0,1,0,.51,1.21,1.21,0,0,1-.13.38.63.63,0,0,1-.38.31,2.41,2.41,0,0,1-.73.09,2.5,2.5,0,0,1-.74-.09.64.64,0,0,1-.39-.3,1.14,1.14,0,0,1-.13-.37A4,4,0,0,1,239,76.64Zm3-7.06a1.33,1.33,0,0,0-.34.88,1.29,1.29,0,0,0,.35.88,1.15,1.15,0,0,0,.9.4,1.25,1.25,0,0,0,.93-.39,1.23,1.23,0,0,0,.38-.88,1.3,1.3,0,0,0-.36-.89,1.21,1.21,0,0,0-.94-.4A1.15,1.15,0,0,0,242,69.58Z" transform="translate(-2.24 -3.63)"/><path class="cls-1" d="M247.78,76.64V67.88a4.24,4.24,0,0,1,0-.51,1.24,1.24,0,0,1,.13-.37q.21-.4,1-.41a2,2,0,0,1,1.07.2.81.81,0,0,1,.32.59,2.07,2.07,0,0,1,1.79-.78,3.2,3.2,0,0,1,2.32,1.15,3.85,3.85,0,0,1,0,5.37,3.18,3.18,0,0,1-2.32,1.16,2.15,2.15,0,0,1-1.79-.69v3a4.22,4.22,0,0,1,0,.51,1.24,1.24,0,0,1-.14.38.63.63,0,0,1-.38.31,2.42,2.42,0,0,1-.74.09,2.49,2.49,0,0,1-.74-.09.64.64,0,0,1-.39-.3,1.19,1.19,0,0,1-.13-.37A4.25,4.25,0,0,1,247.78,76.64Zm3-7.06a1.34,1.34,0,0,0-.34.88,1.29,1.29,0,0,0,.35.88,1.15,1.15,0,0,0,.9.4,1.25,1.25,0,0,0,.93-.39,1.23,1.23,0,0,0,.38-.88,1.3,1.3,0,0,0-.36-.89,1.21,1.21,0,0,0-.94-.4A1.15,1.15,0,0,0,250.75,69.58Z" transform="translate(-2.24 -3.63)"/><path class="cls-1" d="M256.51,64.2a4.44,4.44,0,0,1,0-.52,1.39,1.39,0,0,1,.13-.4q.21-.41,1.17-.41c.61,0,1,.13,1.14.41a1.19,1.19,0,0,1,.14.4,4.66,4.66,0,0,1,0,.53v6.95a1.58,1.58,0,0,0,.09.68c.06.09.19.14.4.14a2.35,2.35,0,0,1,.41,0,.76.76,0,0,1,.25.13q.3.19.3,1.07t-.3,1.15a3.25,3.25,0,0,1-1.86.09,1.88,1.88,0,0,1-1.5-.77,4.92,4.92,0,0,1-.42-2.34Z" transform="translate(-2.24 -3.63)"/><path class="cls-1" d="M263.88,65.13a.64.64,0,0,1-.4.31,3.24,3.24,0,0,1-1.51,0,.63.63,0,0,1-.4-.32,1.27,1.27,0,0,1-.13-.4,6,6,0,0,1,0-1,1.22,1.22,0,0,1,.13-.38q.21-.4,1.17-.4t1.14.4a1.22,1.22,0,0,1,.14.4,6,6,0,0,1,0,1A1.23,1.23,0,0,1,263.88,65.13Zm-2.47,2.78a4.24,4.24,0,0,1,0-.52,1.37,1.37,0,0,1,.13-.4q.21-.39,1.17-.39a1.59,1.59,0,0,1,1,.25.82.82,0,0,1,.27.64c0,.1,0,.25,0,.44V73.2a4.45,4.45,0,0,1,0,.52,1.22,1.22,0,0,1-.14.4q-.2.39-1.16.39t-1.16-.41a1.37,1.37,0,0,1-.13-.39,4.21,4.21,0,0,1,0-.53Z" transform="translate(-2.24 -3.63)"/><path class="cls-1" d="M267.71,70.55a1.22,1.22,0,0,0,.42,1,1.37,1.37,0,0,0,.89.35,1.55,1.55,0,0,0,.88-.28,1.33,1.33,0,0,1,.67-.28q.45,0,1.09.79a1.31,1.31,0,0,1,.34.78q0,.57-.82,1.06a3.56,3.56,0,0,1-2.1.6,4.31,4.31,0,0,1-2.68-1,3.57,3.57,0,0,1-1-1.28,4,4,0,0,1-.39-1.77,3.89,3.89,0,0,1,.39-1.75,3.6,3.6,0,0,1,1-1.27,4.19,4.19,0,0,1,2.65-1,4,4,0,0,1,1.11.16A3.74,3.74,0,0,1,271,67l.24.15.42.29a.86.86,0,0,1,.39.68,1.62,1.62,0,0,1-.31.86q-.54.82-1,.83a1.74,1.74,0,0,1-.81-.33,1.09,1.09,0,0,0-.77-.25,1.44,1.44,0,0,0-.94.36A1.23,1.23,0,0,0,267.71,70.55Z" transform="translate(-2.24 -3.63)"/><path class="cls-1" d="M278.12,67.43q.09-.84,1.18-.84a3.12,3.12,0,0,1,.87.09.63.63,0,0,1,.4.32,1.27,1.27,0,0,1,.13.4,4.24,4.24,0,0,1,0,.52v5.25a4.23,4.23,0,0,1,0,.52,1.4,1.4,0,0,1-.13.4q-.21.39-1,.39a2,2,0,0,1-1.1-.2.81.81,0,0,1-.32-.59,2.1,2.1,0,0,1-1.85.79,3.27,3.27,0,0,1-2.41-1.18,3.9,3.9,0,0,1-1.11-2.75,3.86,3.86,0,0,1,1.12-2.75,3.34,3.34,0,0,1,2.45-1.18,2.33,2.33,0,0,1,.93.18,2.06,2.06,0,0,1,.58.34A2.08,2.08,0,0,1,278.12,67.43Zm-2.73,3.12a1.24,1.24,0,0,0,.39.89,1.27,1.27,0,0,0,.94.4,1.19,1.19,0,0,0,.92-.4,1.3,1.3,0,0,0,.37-.89,1.39,1.39,0,0,0-.35-.91,1.17,1.17,0,0,0-.94-.42,1.22,1.22,0,0,0-1,.42A1.36,1.36,0,0,0,275.39,70.55Z" transform="translate(-2.24 -3.63)"/><path class="cls-1" d="M286.52,69.25l-1-.06v2.07a1,1,0,0,0,.13.58.55.55,0,0,0,.48.18,4.73,4.73,0,0,1,.54,0,1.06,1.06,0,0,1,.4.14q.34.19.34,1T287,74.35a1.36,1.36,0,0,1-.4.13l-.5,0a3.51,3.51,0,0,1-2.37-.71,3,3,0,0,1-.81-2.38V69.19a4,4,0,0,1-.61,0,.69.69,0,0,1-.55-.25,1.35,1.35,0,0,1-.22-.87,3.78,3.78,0,0,1,.08-.89.8.8,0,0,1,.21-.4.92.92,0,0,1,.6-.2l.5.06V65.14a4.24,4.24,0,0,1,0-.51,1,1,0,0,1,.14-.36c.13-.25.52-.37,1.16-.37s1.08.19,1.21.56a2.81,2.81,0,0,1,.08.76v1.47c.44,0,.77-.06,1-.06l.51,0a1.2,1.2,0,0,1,.4.14q.39.19.39,1.16t-.41,1.15a1.36,1.36,0,0,1-.4.13A4.44,4.44,0,0,1,286.52,69.25Z" transform="translate(-2.24 -3.63)"/><path class="cls-1" d="M291.13,65.13a.64.64,0,0,1-.4.31,3.24,3.24,0,0,1-1.51,0,.63.63,0,0,1-.4-.32,1.27,1.27,0,0,1-.13-.4,6,6,0,0,1,0-1,1.22,1.22,0,0,1,.13-.38q.21-.4,1.17-.4t1.14.4a1.22,1.22,0,0,1,.14.4,6,6,0,0,1,0,1A1.23,1.23,0,0,1,291.13,65.13Zm-2.47,2.78a4.24,4.24,0,0,1,0-.52,1.37,1.37,0,0,1,.13-.4q.21-.39,1.17-.39a1.59,1.59,0,0,1,1,.25.82.82,0,0,1,.27.64c0,.1,0,.25,0,.44V73.2a4.45,4.45,0,0,1,0,.52,1.22,1.22,0,0,1-.14.4q-.2.39-1.16.39t-1.16-.41a1.37,1.37,0,0,1-.13-.39,4.21,4.21,0,0,1,0-.53Z" transform="translate(-2.24 -3.63)"/><path class="cls-1" d="M293.53,67.58a4.12,4.12,0,0,1,5.75,0,4.13,4.13,0,0,1,.6,5.18,4,4,0,0,1-1.57,1.42,4.26,4.26,0,0,1-1.91.46,4.08,4.08,0,0,1-1.92-.49,4.25,4.25,0,0,1-1.57-1.44,3.77,3.77,0,0,1-.64-2.15A3.88,3.88,0,0,1,293.53,67.58Zm1.88,4a1.59,1.59,0,0,0,1,.37,1.64,1.64,0,0,0,1-.37,1.51,1.51,0,0,0,0-2.21,1.61,1.61,0,0,0-1-.36,1.57,1.57,0,0,0-1,.38,1.33,1.33,0,0,0-.47,1.1A1.29,1.29,0,0,0,295.4,71.63Z" transform="translate(-2.24 -3.63)"/><path class="cls-1" d="M305.89,66.59a3.17,3.17,0,0,1,2.5,1.15,4.12,4.12,0,0,1,1,2.8v2.64a4.17,4.17,0,0,1,0,.52,1.23,1.23,0,0,1-.13.38q-.21.4-1.17.41t-1.23-.56a2.45,2.45,0,0,1-.09-.76V70.53a1.21,1.21,0,0,0-1.3-1.31,1.31,1.31,0,0,0-1,.36,1.26,1.26,0,0,0-.37.95v2.65a4.42,4.42,0,0,1,0,.52,1.06,1.06,0,0,1-.14.38q-.19.4-1.16.41t-1.15-.41a1.4,1.4,0,0,1-.13-.4,4.44,4.44,0,0,1,0-.52V67.86a4.27,4.27,0,0,1,0-.5,1.08,1.08,0,0,1,.14-.38q.21-.37,1.16-.37t1.13.35a1.2,1.2,0,0,1,.15.61,1.53,1.53,0,0,1,.27-.3,2.58,2.58,0,0,1,.41-.31A2,2,0,0,1,305.89,66.59Z" transform="translate(-2.24 -3.63)"/><path class="cls-1" d="M310.64,73.79a.62.62,0,0,1-.29-.57,2.46,2.46,0,0,1,.57-1.18.59.59,0,0,1,.53-.25,2.18,2.18,0,0,1,1,.37,2.31,2.31,0,0,0,1.14.37q.91,0,.91-.36t-1-.42a4.91,4.91,0,0,1-1.87-.71,2,2,0,0,1-.72-.85,3.06,3.06,0,0,1-.29-1.37q0-2.37,3.25-2.37a5.29,5.29,0,0,1,2.19.51c.35.16.53.36.53.6a1.78,1.78,0,0,1-.33.89q-.33.52-.68.52a2,2,0,0,1-.67-.22,2.49,2.49,0,0,0-1.06-.23q-.88,0-.88.33t1,.58a5.6,5.6,0,0,1,1.92.57,1.7,1.7,0,0,1,.73.73,2.6,2.6,0,0,1,.29,1.3,2.78,2.78,0,0,1-.29,1.33,1.89,1.89,0,0,1-.82.82,5.5,5.5,0,0,1-2.41.46A5.14,5.14,0,0,1,310.64,73.79Z" transform="translate(-2.24 -3.63)"/></svg>